# Blender v2.81 (sub 16) OBJ File: ''
# www.blender.org
mtllib Rock1.mtl
o Cube
v -0.558452 -0.468868 -0.021723
v -0.580654 -0.580193 0.161018
v -0.509765 -0.544810 0.422722
v -0.006958 -0.337941 -0.433683
v 0.299761 0.320421 0.324632
v 0.433670 -0.066918 0.367182
v 0.437749 -0.168078 0.479413
v 0.492869 -0.261331 0.369587
v 0.304457 -0.340539 0.392132
v -0.276696 0.260447 -0.361545
v -0.228129 -0.299831 -0.257680
v 0.068352 0.604898 0.509197
v -0.013584 0.577988 0.646017
v -0.081741 0.547989 0.689749
v -0.251935 0.388825 0.496461
v 0.338583 0.444320 -0.038817
v -0.276358 -0.665007 0.666021
v 0.052280 -0.579157 0.521731
v 0.251777 -0.364668 0.427217
v -0.395349 0.452100 -0.028055
v 0.574244 -0.476705 0.200914
v 0.602825 -0.643492 -0.079407
v 0.600655 -0.479876 -0.158721
v 0.362574 -0.376194 -0.311427
v 0.309494 0.473035 -0.430669
v -0.002212 0.546667 -0.542727
v 0.291143 0.594289 -0.408270
v 0.106269 0.699687 -0.466766
v 0.172201 0.732407 -0.385446
v -0.129823 0.583195 -0.364129
v 0.083295 0.784504 -0.346539
v 0.306480 0.553836 -0.146150
v -0.188339 0.695034 -0.120021
v 0.167145 0.680575 0.077691
v 0.004171 0.853092 -0.088615
v -0.047203 0.846971 0.172311
v -0.098147 0.854622 0.112160
v -0.369540 0.655830 0.264395
v 0.227676 0.448752 0.394661
v -0.152606 0.810262 0.473875
v -0.189572 0.818958 0.490246
v -0.322455 0.702067 0.394168
v -0.482362 0.451530 0.242904
v 0.353345 0.052645 0.517836
v 0.104870 -0.164140 0.848073
v 0.357518 -0.122286 0.617658
v 0.110456 -0.081321 0.888081
v -0.000326 -0.335220 0.789243
v 0.200159 0.257875 0.649352
v 0.019960 0.374204 0.779813
v -0.027769 -0.237473 0.860103
v 0.003714 -0.080701 0.871150
v -0.002869 0.320793 0.804149
v -0.093756 -0.405466 0.810410
v -0.203566 -0.252766 0.678997
v -0.191612 -0.603192 0.739374
v -0.166691 0.106715 0.631547
v -0.306141 -0.127370 0.479228
v -0.340300 0.126039 0.314601
v -0.486957 -0.277434 0.343962
v -0.341709 0.033381 0.316480
v -0.629443 -0.315476 0.215478
v -0.517316 0.282490 0.182094
v -0.630160 -0.494357 0.245697
v -0.546495 0.028227 0.178679
v -0.564379 -0.391185 -0.040933
v -0.551421 0.017926 0.119011
v -0.503271 -0.371276 -0.138186
v -0.362672 0.113149 -0.204189
v -0.445434 -0.261912 -0.272824
v -0.396927 -0.199404 -0.356666
v -0.154672 -0.312426 -0.278285
v 0.085926 -0.434222 -0.409051
v 0.210008 -0.629302 -0.311718
v 0.002917 -0.575823 -0.201588
v -0.214687 -0.610033 -0.040491
v 0.373764 -0.698490 -0.200068
v 0.167174 -0.751975 -0.140871
v 0.489463 -0.828843 0.006570
v -0.428069 -0.714957 0.178750
v -0.168175 -0.833969 0.176222
v 0.225449 -0.921552 0.098115
v 0.569495 -0.730091 0.048936
v 0.393522 -0.851417 0.094422
v -0.398026 -0.783660 0.254775
v 0.008134 -0.919585 0.282766
v 0.117757 -0.961670 0.194974
v 0.578063 -0.583190 0.143526
v -0.330504 -0.754171 0.381649
v -0.008044 -0.863096 0.383050
v 0.233075 -0.704906 0.289421
v -0.388095 -0.680779 0.540277
v -0.092379 -0.781401 0.520854
v -0.218262 -0.724593 0.630432
v 0.366180 -0.173668 -0.315787
v 0.468689 0.199780 -0.338637
v 0.565875 -0.100781 -0.249541
v 0.521397 0.059837 -0.291959
v 0.465151 0.240541 -0.292380
v 0.605170 -0.259524 -0.196281
v 0.628950 -0.409291 -0.124827
v 0.502439 -0.133532 0.085377
v 0.540777 -0.380523 0.267767
v 0.356786 0.157392 0.103220
v -0.337722 -0.163386 -0.450357
v -0.256457 -0.147281 -0.540182
v -0.233726 0.444838 -0.342412
v -0.231604 0.056662 -0.526182
v -0.134448 0.238505 -0.564840
v -0.086366 -0.255922 -0.475617
v -0.176147 -0.171746 -0.528669
v -0.179256 0.062713 -0.556235
v -0.104481 0.414242 -0.532919
v -0.050622 0.381688 -0.556256
v 0.147530 -0.103416 -0.354454
v 0.179481 -0.034496 -0.348501
v 0.411104 0.407914 -0.385594
v 0.287183 0.174545 -0.383120
vt 0.176333 0.845498
vt 0.176333 0.845498
vt 0.176333 0.845498
vt 0.176333 0.845498
vt 0.176333 0.845498
vt 0.176333 0.845498
vt 0.176333 0.845498
vt 0.176333 0.845498
vt 0.176333 0.845498
vt 0.176333 0.845498
vt 0.176333 0.845498
vt 0.176333 0.845498
vt 0.176333 0.845498
vt 0.176333 0.845498
vt 0.176333 0.845498
vt 0.176333 0.845498
vt 0.176333 0.845498
vt 0.176333 0.845498
vt 0.176333 0.845498
vt 0.176333 0.845498
vt 0.176333 0.845498
vt 0.176333 0.845498
vt 0.176333 0.845498
vt 0.176333 0.845498
vt 0.176333 0.845498
vt 0.176333 0.845498
vt 0.176333 0.845498
vt 0.176333 0.845498
vt 0.176333 0.845498
vt 0.176333 0.845498
vt 0.176333 0.845498
vt 0.176333 0.845498
vt 0.176333 0.845498
vt 0.176333 0.845498
vt 0.176333 0.845498
vt 0.176333 0.845498
vt 0.176333 0.845498
vt 0.176333 0.845498
vt 0.176333 0.845498
vt 0.176333 0.845498
vt 0.176333 0.845498
vt 0.176333 0.845498
vt 0.176333 0.845498
vt 0.176333 0.845498
vt 0.176333 0.845498
vt 0.176333 0.845498
vt 0.176333 0.845498
vt 0.176333 0.845498
vt 0.176333 0.845498
vt 0.176333 0.845498
vt 0.176333 0.845498
vt 0.176333 0.845498
vt 0.176333 0.845498
vt 0.176333 0.845498
vt 0.176333 0.845498
vt 0.176333 0.845498
vt 0.176333 0.845498
vt 0.176333 0.845498
vt 0.176333 0.845498
vt 0.176333 0.845498
vt 0.176333 0.845498
vt 0.176333 0.845498
vt 0.176333 0.845498
vt 0.176333 0.845498
vt 0.176333 0.845498
vt 0.176333 0.845498
vt 0.176333 0.845498
vt 0.176333 0.845498
vt 0.176333 0.845498
vt 0.176333 0.845498
vt 0.176333 0.845498
vt 0.176333 0.845498
vt 0.176333 0.845498
vt 0.176333 0.845498
vt 0.176333 0.845498
vt 0.176333 0.845498
vt 0.176333 0.845498
vt 0.176333 0.845498
vt 0.176333 0.845498
vt 0.176333 0.845498
vt 0.176333 0.845498
vt 0.176333 0.845498
vt 0.176333 0.845498
vt 0.176333 0.845498
vt 0.176333 0.845498
vt 0.176333 0.845498
vt 0.176333 0.845498
vt 0.176333 0.845498
vt 0.176333 0.845498
vt 0.176333 0.845498
vt 0.176333 0.845498
vt 0.176333 0.845498
vt 0.176333 0.845498
vt 0.176333 0.845498
vt 0.176333 0.845498
vt 0.176333 0.845498
vt 0.176333 0.845498
vt 0.176333 0.845498
vt 0.176333 0.845498
vt 0.176333 0.845498
vt 0.176333 0.845498
vt 0.176333 0.845498
vt 0.176333 0.845498
vt 0.176333 0.845498
vt 0.176333 0.845498
vt 0.176333 0.845498
vt 0.176333 0.845498
vt 0.176333 0.845498
vt 0.176333 0.845498
vt 0.176333 0.845498
vt 0.176333 0.845498
vt 0.176333 0.845498
vt 0.176333 0.845498
vt 0.176333 0.845498
vt 0.176333 0.845498
vt 0.176333 0.845498
vt 0.176333 0.845498
vt 0.176333 0.845498
vn -0.7066 0.4442 -0.5507
vn 0.9016 0.4072 0.1458
vn -0.5589 0.6379 -0.5298
vn 0.7611 0.6463 0.0552
vn -0.5533 0.7471 -0.3684
vn -0.7582 0.5046 -0.4129
vn 0.6458 0.7496 0.1447
vn -0.6570 0.7157 -0.2367
vn -0.8317 0.4873 -0.2661
vn 0.8263 0.5180 0.2211
vn -0.6163 0.7839 -0.0751
vn 0.6623 0.6974 0.2739
vn 0.6217 0.7214 0.3051
vn -0.8720 0.4657 0.1504
vn -0.7318 0.0570 0.6791
vn 0.5597 0.6829 0.4695
vn 0.4320 0.6399 0.6356
vn 0.5233 -0.6706 0.5258
vn 0.8958 0.3637 0.2556
vn 0.5655 -0.6552 0.5010
vn 0.8197 0.2985 0.4889
vn 0.8414 0.3849 0.3794
vn 0.7333 0.2508 0.6319
vn 0.6506 -0.5719 0.4996
vn 0.7222 -0.4345 0.5382
vn 0.6963 0.4800 0.5337
vn -0.1524 0.1998 0.9679
vn -0.7183 0.0957 0.6891
vn -0.7764 0.0913 0.6236
vn -0.7608 0.0612 0.6461
vn -0.6947 0.0873 0.7140
vn -0.6970 0.1088 0.7088
vn -0.8358 0.1552 0.5266
vn -0.8762 0.0231 0.4814
vn -0.7490 0.2452 0.6155
vn -0.7289 0.3454 0.5911
vn -0.8712 0.2405 0.4280
vn 0.3457 -0.6225 0.7021
vn -0.7496 -0.1873 0.6349
vn -0.8090 0.1011 0.5790
vn -0.6642 -0.1276 0.7366
vn -0.5485 0.2188 0.8070
vn -0.5584 0.0530 0.8279
vn -0.9704 0.2384 0.0390
vn -0.9916 0.1130 0.0624
vn -0.9531 -0.1392 -0.2688
vn -0.8112 -0.1980 -0.5502
vn -0.8723 0.1566 -0.4633
vn -0.7929 -0.2594 -0.5513
vn -0.9131 0.1152 -0.3911
vn -0.9071 0.2606 -0.3305
vn -0.0910 -0.7724 -0.6285
vn -0.9287 0.2398 -0.2829
vn -0.0864 -0.7548 -0.6502
vn -0.9250 -0.2640 -0.2732
vn 0.3652 -0.2191 -0.9048
vn -0.5961 -0.5318 -0.6015
vn -0.4663 -0.4929 -0.7346
vn -0.2726 -0.5597 -0.7826
vn -0.4806 -0.6508 -0.5878
vn 0.0559 -0.8300 -0.5549
vn 0.4820 -0.5937 -0.6444
vn 0.8005 -0.5723 -0.1782
vn -0.3204 -0.6945 -0.6442
vn 0.0779 -0.8040 -0.5895
vn -0.3530 -0.7593 -0.5467
vn 0.4987 -0.4443 0.7442
vn -0.4033 -0.9127 -0.0661
vn -0.3176 -0.8723 0.3717
vn -0.2900 -0.8531 0.4337
vn -0.7748 -0.5857 0.2380
vn -0.2345 -0.9119 0.3368
vn -0.3020 -0.8896 0.3426
vn 0.4631 -0.3233 0.8252
vn 0.6600 -0.3129 0.6830
vn -0.3741 -0.8860 0.2741
vn -0.2364 -0.9466 0.2192
vn -0.5850 -0.6782 -0.4448
vn 0.5010 -0.3721 -0.7814
vn 0.6457 -0.4645 0.6061
vn -0.1887 -0.6326 0.7511
vn -0.4544 -0.7396 0.4965
vn -0.7396 -0.0844 0.6678
vn -0.5475 -0.6834 -0.4829
vn 0.9624 0.2360 -0.1343
vn 0.3809 -0.1603 -0.9106
vn 0.9384 0.2917 -0.1852
vn 0.4818 -0.1621 -0.8612
vn 0.8641 0.4945 0.0940
vn 0.9563 0.2143 0.1991
vn 0.8912 0.4392 0.1137
vn 0.3195 -0.5380 0.7801
vn 0.3816 0.1984 -0.9028
vn 0.3564 -0.4465 0.8208
vn 0.9926 -0.0279 0.1178
vn 0.9046 -0.1762 -0.3882
vn -0.2985 -0.8554 -0.4234
vn -0.7467 0.1357 -0.6512
vn -0.8314 0.2261 -0.5075
vn -0.5047 0.1202 -0.8549
vn -0.7551 0.2771 -0.5941
vn -0.5477 -0.7348 -0.4000
vn 0.4617 -0.1604 -0.8724
vn 0.3420 0.0907 -0.9353
vn 0.3501 -0.1129 -0.9299
vn 0.1753 0.0038 -0.9845
vn -0.2295 -0.8511 -0.4722
vn 0.3499 -0.0988 -0.9316
vn 0.0368 -0.1817 -0.9827
vn 0.5142 0.2304 -0.8262
vn 0.6479 0.7595 0.0580
vn -0.6680 0.4734 -0.5741
vn -0.8595 0.2467 -0.4476
vn 0.8384 0.5439 0.0349
vn 0.5218 0.5562 -0.6468
vn -0.5226 0.6464 -0.5559
vn 0.2461 0.8135 -0.5269
vn -0.5939 0.6680 -0.4484
vn 0.7401 0.6674 0.0828
vn -0.4459 0.8640 -0.2338
vn -0.7659 0.4992 -0.4053
vn 0.8801 0.4202 0.2209
vn -0.7783 0.5454 -0.3112
vn 0.0453 -0.2149 0.9756
vn 0.0045 0.9925 0.1224
vn 0.2925 0.9428 0.1597
vn -0.6442 0.7639 -0.0385
vn 0.7667 0.5791 0.2771
vn -0.7652 0.0376 0.6427
vn -0.6938 0.2270 0.6834
vn 0.1833 0.6538 0.7341
vn 0.9190 0.3088 0.2449
vn 0.9148 0.3402 0.2178
vn 0.8701 0.2598 0.4189
vn 0.6139 -0.6077 0.5038
vn 0.6601 -0.3624 0.6580
vn 0.6779 0.2947 0.6735
vn 0.5576 -0.5559 0.6165
vn 0.3420 -0.4867 0.8038
vn 0.1492 0.5224 0.8396
vn 0.5394 0.1472 0.8291
vn 0.7188 0.4604 0.5210
vn 0.4881 -0.4183 0.7660
vn -0.7398 0.1621 0.6530
vn 0.4409 -0.2794 -0.8529
vn -0.7186 0.0779 0.6910
vn -0.7754 0.0664 0.6280
vn -0.8774 -0.0360 0.4784
vn 0.7702 0.4677 0.4337
vn -0.7373 0.3931 0.5494
vn -0.6924 0.1015 0.7144
vn -0.6840 0.2592 0.6818
vn -0.5846 0.0253 0.8109
vn -0.6745 0.3716 0.6380
vn -0.9711 -0.0359 -0.2358
vn -0.9490 0.1404 -0.2823
vn -0.9122 0.1739 -0.3710
vn -0.9092 0.2038 -0.3632
vn -0.8642 0.2686 -0.4255
vn -0.9104 0.2932 -0.2918
vn -0.4876 -0.6179 -0.6168
vn 0.5190 -0.5637 0.6426
vn -0.3115 -0.5540 -0.7720
vn 0.0468 -0.8169 -0.5748
vn -0.4060 -0.6124 -0.6784
vn -0.4119 -0.6764 -0.6106
vn -0.3231 -0.6919 -0.6456
vn -0.3148 -0.7836 -0.5356
vn -0.1792 -0.8224 -0.5399
vn 0.3819 -0.9056 0.1844
vn 0.5812 -0.6695 0.4627
vn 0.3856 -0.9215 0.0470
vn 0.4807 -0.4944 0.7242
vn -0.5763 -0.7065 -0.4108
vn -0.2903 -0.9210 -0.2597
vn 0.4637 -0.4818 0.7435
vn 0.4726 -0.5656 0.6758
vn -0.8240 -0.4874 0.2891
vn 0.6226 -0.3229 0.7128
vn 0.5775 -0.4967 0.6479
vn 0.5889 -0.4242 0.6879
vn 0.9767 -0.1536 0.1500
vn 0.3667 -0.4311 0.8244
vn 0.9448 0.2682 0.1884
vn -0.6884 -0.6704 0.2771
vn -0.0971 -0.7397 -0.6659
vn 0.1876 -0.0245 -0.9819
vn 0.4309 -0.1170 -0.8948
vn 0.5181 -0.1540 -0.8413
vn 0.8587 -0.1032 -0.5020
vn 0.9081 0.2834 0.3083
vn 0.9277 0.3113 0.2062
vn 0.8700 0.4197 0.2588
vn 0.9316 0.2070 0.2987
vn 0.9316 0.2996 0.2058
vn 0.4821 -0.1078 -0.8695
vn 0.9601 0.1941 0.2014
vn 0.9790 0.1370 0.1513
vn 0.9315 0.2864 0.2243
vn 0.9450 0.3270 0.0026
vn 0.2528 -0.1281 -0.9590
vn 0.9130 0.3790 0.1511
vn 0.9855 -0.0811 0.1487
vn -0.8606 0.2201 -0.4592
vn -0.2718 -0.8515 -0.4484
vn -0.8148 0.2444 -0.5257
vn -0.3931 -0.8390 -0.3763
vn -0.0587 -0.5764 -0.8151
vn 0.1066 -0.1147 -0.9877
vn -0.5035 0.0863 -0.8597
vn -0.7856 0.2377 -0.5712
vn 0.4801 -0.0402 -0.8763
vn -0.2747 0.2170 -0.9367
vn -0.3056 0.1665 -0.9375
vn 0.4627 -0.0053 -0.8865
vn 0.3698 -0.1617 -0.9149
vn 0.3339 -0.3189 -0.8870
vn 0.2674 -0.3228 -0.9079
vn 0.2104 0.1209 -0.9701
vn 0.3339 -0.0207 -0.9424
vn 0.3375 -0.0263 -0.9409
usemtl Material
s off
f 113/1/1 107/2/1 30/3/1
f 117/4/2 32/5/2 16/6/2
f 26/7/3 30/3/3 31/8/3
f 27/9/4 29/10/4 32/5/4
f 31/8/5 33/11/5 35/12/5
f 30/3/6 107/2/6 33/11/6
f 35/12/7 36/13/7 34/14/7
f 33/11/8 38/15/8 37/16/8
f 20/17/9 43/18/9 38/15/9
f 34/14/10 39/19/10 32/5/10
f 37/16/11 38/15/11 41/20/11
f 36/13/12 12/21/12 34/14/12
f 36/13/13 40/22/13 12/21/13
f 38/15/14 43/18/14 42/23/14
f 43/18/15 15/24/15 42/23/15
f 40/22/16 13/25/16 12/21/16
f 41/20/17 14/26/17 40/22/17
f 7/27/18 46/28/18 9/29/18
f 5/30/19 39/19/19 44/31/19
f 46/28/20 45/32/20 9/29/20
f 44/31/21 49/33/21 46/28/21
f 39/19/22 49/33/22 44/31/22
f 46/28/23 49/33/23 47/34/23
f 45/32/24 48/35/24 19/36/24
f 48/35/25 18/37/25 19/36/25
f 49/33/26 12/21/26 50/38/26
f 50/38/27 52/39/27 47/34/27
f 52/39/28 55/40/28 51/41/28
f 53/42/29 57/43/29 52/39/29
f 53/42/30 14/26/30 57/43/30
f 54/44/31 3/45/31 56/46/31
f 55/40/32 3/45/32 54/44/32
f 57/43/33 58/47/33 55/40/33
f 57/43/34 59/48/34 61/49/34
f 60/50/35 3/45/35 55/40/35
f 58/47/36 60/50/36 55/40/36
f 57/43/37 61/49/37 58/47/37
f 8/51/38 7/27/38 9/29/38
f 15/24/39 43/18/39 59/48/39
f 3/45/40 62/52/40 64/53/40
f 43/18/41 63/54/41 59/48/41
f 61/49/42 65/55/42 62/52/42
f 63/54/43 65/55/43 61/49/43
f 65/55/44 67/56/44 62/52/44
f 63/54/45 67/56/45 65/55/45
f 66/57/46 1/58/46 64/53/46
f 66/57/47 68/59/47 1/58/47
f 67/56/48 20/17/48 69/60/48
f 70/61/49 68/59/49 66/57/49
f 20/17/50 10/62/50 69/60/50
f 69/60/51 71/63/51 70/61/51
f 70/61/52 71/63/52 11/64/52
f 69/60/53 10/62/53 71/63/53
f 68/59/54 70/61/54 11/64/54
f 64/53/55 1/58/55 2/65/55
f 73/66/56 24/67/56 74/68/56
f 73/66/57 75/69/57 72/70/57
f 75/69/58 76/71/58 72/70/58
f 11/64/59 76/71/59 1/58/59
f 74/68/60 78/72/60 75/69/60
f 77/73/61 79/74/61 78/72/61
f 22/75/62 79/74/62 77/73/62
f 22/75/63 83/76/63 79/74/63
f 76/71/64 80/77/64 1/58/64
f 79/74/65 82/78/65 78/72/65
f 81/79/66 85/80/66 80/77/66
f 83/76/67 91/81/67 84/82/67
f 87/83/68 86/84/68 81/79/68
f 86/84/69 89/85/69 85/80/69
f 86/84/70 90/86/70 89/85/70
f 85/80/71 92/87/71 2/65/71
f 89/85/72 92/87/72 85/80/72
f 90/86/73 93/88/73 89/85/73
f 88/89/74 9/29/74 91/81/74
f 19/36/75 18/37/75 91/81/75
f 89/85/76 94/90/76 92/87/76
f 93/88/77 94/90/77 89/85/77
f 4/91/78 73/66/78 72/70/78
f 77/73/79 23/92/79 22/75/79
f 18/37/80 54/44/80 93/88/80
f 94/90/81 56/46/81 17/93/81
f 94/90/82 17/93/82 92/87/82
f 92/87/83 17/93/83 3/45/83
f 1/58/84 80/77/84 2/65/84
f 117/4/85 99/94/85 96/95/85
f 96/95/86 98/96/86 95/97/86
f 96/95/87 99/94/87 98/96/87
f 24/67/88 97/98/88 23/92/88
f 102/99/89 6/100/89 100/101/89
f 8/51/90 103/102/90 101/103/90
f 102/99/91 104/104/91 6/100/91
f 103/102/92 8/51/92 9/29/92
f 27/9/93 25/105/93 26/7/93 28/106/93
f 21/107/94 103/102/94 9/29/94
f 21/107/95 88/89/95 22/75/95
f 23/92/96 101/103/96 22/75/96
f 105/108/97 106/109/97 72/70/97
f 105/108/98 108/110/98 106/109/98
f 10/62/99 108/110/99 105/108/99
f 108/110/100 112/111/100 106/109/100
f 107/2/101 109/112/101 108/110/101
f 110/113/102 4/91/102 72/70/102
f 112/111/103 109/112/103 116/114/103
f 115/115/104 73/66/104 4/91/104
f 114/116/105 117/4/105 96/95/105
f 116/114/106 95/97/106 115/115/106
f 71/63/107 105/108/107 11/64/107
f 114/116/108 25/105/108 117/4/108
f 118/117/109 95/97/109 116/114/109
f 117/4/110 25/105/110 27/9/110
f 35/12/111 34/14/111 29/10/111 31/8/111
f 26/7/112 113/1/112 30/3/112
f 107/2/113 10/62/113 20/17/113
f 117/4/114 27/9/114 32/5/114
f 27/9/115 28/106/115 29/10/115
f 28/106/116 26/7/116 31/8/116
f 29/10/117 28/106/117 31/8/117
f 31/8/118 30/3/118 33/11/118
f 32/5/119 29/10/119 34/14/119
f 37/16/120 36/13/120 35/12/120 33/11/120
f 33/11/121 107/2/121 20/17/121
f 5/30/122 16/6/122 32/5/122 39/19/122
f 33/11/123 20/17/123 38/15/123
f 52/39/124 51/41/124 45/32/124 47/34/124
f 36/13/125 37/16/125 40/22/125
f 37/16/126 41/20/126 40/22/126
f 41/20/127 38/15/127 42/23/127
f 34/14/128 12/21/128 39/19/128
f 42/23/129 15/24/129 14/26/129
f 42/23/130 14/26/130 41/20/130
f 40/22/131 14/26/131 13/25/131
f 7/27/132 6/100/132 44/31/132
f 6/100/133 5/30/133 44/31/133
f 7/27/134 44/31/134 46/28/134
f 9/29/135 45/32/135 19/36/135
f 46/28/136 47/34/136 45/32/136
f 47/34/137 49/33/137 50/38/137
f 48/35/138 54/44/138 18/37/138
f 45/32/139 51/41/139 48/35/139
f 14/26/140 53/42/140 50/38/140 13/25/140
f 50/38/141 53/42/141 52/39/141
f 50/38/142 12/21/142 13/25/142
f 48/35/143 51/41/143 54/44/143
f 52/39/144 57/43/144 55/40/144
f 23/92/145 77/73/145 74/68/145 24/67/145
f 51/41/146 55/40/146 54/44/146
f 57/43/147 14/26/147 15/24/147
f 57/43/148 15/24/148 59/48/148
f 49/33/149 39/19/149 12/21/149
f 58/47/150 61/49/150 60/50/150
f 56/46/151 3/45/151 17/93/151
f 3/45/152 60/50/152 62/52/152
f 59/48/153 63/54/153 61/49/153
f 60/50/154 61/49/154 62/52/154
f 62/52/155 66/57/155 64/53/155
f 62/52/156 67/56/156 66/57/156
f 67/56/157 70/61/157 66/57/157
f 67/56/158 63/54/158 20/17/158
f 67/56/159 69/60/159 70/61/159
f 63/54/160 43/18/160 20/17/160
f 73/66/161 74/68/161 75/69/161
f 90/86/162 86/84/162 87/83/162 91/81/162
f 11/64/163 72/70/163 76/71/163
f 74/68/164 77/73/164 78/72/164
f 75/69/165 78/72/165 76/71/165
f 78/72/166 81/79/166 76/71/166
f 76/71/167 81/79/167 80/77/167
f 78/72/168 87/83/168 81/79/168
f 78/72/169 82/78/169 87/83/169
f 79/74/170 84/82/170 82/78/170
f 79/74/171 83/76/171 84/82/171
f 82/78/172 84/82/172 87/83/172
f 83/76/173 88/89/173 91/81/173
f 80/77/174 85/80/174 2/65/174
f 81/79/175 86/84/175 85/80/175
f 84/82/176 91/81/176 87/83/176
f 56/46/177 94/90/177 93/88/177 54/44/177
f 2/65/178 92/87/178 3/45/178
f 91/81/179 9/29/179 19/36/179
f 90/86/180 91/81/180 93/88/180
f 91/81/181 18/37/181 93/88/181
f 22/75/182 88/89/182 83/76/182
f 88/89/183 21/107/183 9/29/183
f 8/51/184 101/103/184 100/101/184 6/100/184
f 2/65/185 3/45/185 64/53/185
f 68/59/186 11/64/186 1/58/186
f 24/67/187 95/97/187 98/96/187
f 24/67/188 98/96/188 97/98/188
f 23/92/189 97/98/189 100/101/189
f 23/92/190 100/101/190 101/103/190
f 99/94/191 104/104/191 98/96/191
f 98/96/192 102/99/192 97/98/192
f 98/96/193 104/104/193 102/99/193
f 99/94/194 16/6/194 104/104/194
f 97/98/195 102/99/195 100/101/195
f 116/114/196 115/115/196 111/118/196 112/111/196
f 101/103/197 103/102/197 21/107/197
f 104/104/198 16/6/198 5/30/198
f 8/51/199 6/100/199 7/27/199
f 6/100/200 104/104/200 5/30/200
f 118/117/201 96/95/201 95/97/201
f 99/94/202 117/4/202 16/6/202
f 101/103/203 21/107/203 22/75/203
f 71/63/204 10/62/204 105/108/204
f 11/64/205 105/108/205 72/70/205
f 10/62/206 107/2/206 108/110/206
f 106/109/207 110/113/207 72/70/207
f 106/109/208 111/118/208 110/113/208
f 106/109/209 112/111/209 111/118/209
f 108/110/210 109/112/210 112/111/210
f 107/2/211 113/1/211 109/112/211
f 111/118/212 115/115/212 110/113/212
f 109/112/213 113/1/213 114/116/213
f 113/1/214 26/7/214 114/116/214
f 110/113/215 115/115/215 4/91/215
f 109/112/216 114/116/216 118/117/216
f 116/114/217 109/112/217 118/117/217
f 118/117/218 114/116/218 96/95/218
f 73/66/219 115/115/219 95/97/219
f 114/116/220 26/7/220 25/105/220
f 24/67/221 73/66/221 95/97/221
