# Blender v2.81 (sub 16) OBJ File: ''
# www.blender.org
mtllib Rock1.mtl
o Cube.001
v -0.026928 0.512078 -0.556034
v 0.407394 0.448290 -0.386456
v 0.139423 0.755426 -0.421968
v -0.188339 0.695034 -0.120021
v -0.026151 0.864707 0.059463
v -0.383043 0.650679 0.326445
v -0.504686 0.372664 0.182235
v 0.270703 0.295285 0.519542
v -0.185061 0.818443 0.487997
v -0.007670 0.626671 0.603603
v -0.182446 0.235650 0.584790
v 0.438377 -0.147218 0.494680
v 0.296355 -0.344094 0.394440
v 0.123964 -0.103253 0.871216
v 0.148890 -0.660365 0.375907
v -0.006887 0.391687 0.785395
v -0.003939 -0.206274 0.876516
v -0.286198 -0.269395 0.582646
v -0.390485 -0.655502 0.567336
v -0.336477 0.057172 0.314104
v -0.647279 -0.491362 0.232933
v -0.536190 -0.371329 -0.115805
v -0.240399 0.411277 -0.350578
v -0.178783 -0.304933 -0.267643
v -0.016518 -0.319176 -0.442290
v 0.551350 -0.048928 -0.277463
v 0.233686 -0.649100 -0.298373
v -0.093720 -0.607045 -0.103496
v 0.566003 -0.785633 0.001602
v -0.396330 -0.780863 0.247481
v 0.101465 -0.964823 0.202223
v -0.227108 -0.673740 0.699243
v 0.579288 -0.493160 0.187776
v 0.623667 -0.310632 -0.182348
v 0.356786 0.157392 0.103220
v -0.259254 -0.129824 -0.550251
v 0.171479 -0.058217 -0.349686
vt 0.176333 0.845498
vt 0.176333 0.845498
vt 0.176333 0.845498
vt 0.176333 0.845498
vt 0.176333 0.845498
vt 0.176333 0.845498
vt 0.176333 0.845498
vt 0.176333 0.845498
vt 0.176333 0.845498
vt 0.176333 0.845498
vt 0.176333 0.845498
vt 0.176333 0.845498
vt 0.176333 0.845498
vt 0.176333 0.845498
vt 0.176333 0.845498
vt 0.176333 0.845498
vt 0.176333 0.845498
vt 0.176333 0.845498
vt 0.176333 0.845498
vt 0.176333 0.845498
vt 0.176333 0.845498
vt 0.176333 0.845498
vt 0.176333 0.845498
vt 0.176333 0.845498
vt 0.176333 0.845498
vt 0.176333 0.845498
vt 0.176333 0.845498
vt 0.176333 0.845498
vt 0.176333 0.845498
vt 0.176333 0.845498
vt 0.176333 0.845498
vt 0.176333 0.845498
vt 0.176333 0.845498
vt 0.176333 0.845498
vt 0.176333 0.845498
vt 0.176333 0.845498
vt 0.176333 0.845498
vn 0.5394 0.8420 -0.0056
vn -0.4682 0.8132 -0.3456
vn -0.0612 0.9686 -0.2409
vn -0.7071 0.5195 -0.4798
vn -0.7490 0.4931 -0.4425
vn -0.7762 0.4774 -0.4118
vn -0.6041 0.7748 -0.1865
vn 0.7829 0.5832 0.2166
vn 0.8794 0.4297 0.2052
vn 0.8612 0.4636 0.2082
vn -0.5786 0.8056 -0.1276
vn 0.6016 0.7391 0.3029
vn -0.7781 0.0148 0.6279
vn 0.5391 -0.6571 0.5269
vn 0.7569 0.2530 0.6025
vn 0.7830 -0.3933 0.4818
vn 0.6960 0.4408 0.5668
vn -0.0798 0.1498 0.9855
vn 0.3330 -0.3688 0.8678
vn 0.1421 -0.1259 0.9818
vn -0.7831 0.0899 0.6154
vn -0.6279 0.0046 0.7783
vn -0.7287 0.1705 0.6633
vn -0.9015 0.1835 0.3920
vn -0.7970 -0.1845 0.5752
vn -0.4539 0.1267 0.8820
vn 0.3398 -0.1475 -0.9289
vn 0.3927 -0.1764 -0.9026
vn 0.3649 -0.1612 -0.9170
vn -0.6565 -0.4944 -0.5697
vn -0.2520 -0.5158 -0.8188
vn -0.4383 -0.5958 -0.6730
vn -0.3750 -0.6605 -0.6504
vn -0.3476 -0.6859 -0.6394
vn 0.1092 -0.8535 -0.5095
vn -0.3016 -0.8962 0.3255
vn -0.7363 -0.6253 0.2585
vn 0.4716 -0.2691 0.8397
vn -0.3741 -0.8611 0.3443
vn 0.5392 -0.3603 -0.7613
vn 0.5694 -0.5149 0.6409
vn -0.6740 -0.6055 -0.4231
vn 0.9240 0.3424 0.1702
vn 0.9562 0.2002 0.2134
vn 0.9311 0.3185 0.1780
vn 0.8948 0.4231 0.1428
vn 0.2587 -0.5799 0.7725
vn 0.3486 -0.1033 -0.9316
vn -0.0592 -0.8560 -0.5136
vn -0.1125 0.5374 -0.8358
vn -0.1298 0.5451 -0.8283
vn -0.5714 0.6596 -0.4883
vn 0.7432 0.6607 0.1056
vn -0.8125 0.4501 -0.3704
vn -0.8064 0.5090 -0.3011
vn 0.7730 0.5905 0.2320
vn -0.7642 0.0316 0.6442
vn -0.7088 0.1795 0.6822
vn 0.1450 0.6057 0.7823
vn 0.7122 0.2985 0.6354
vn 0.4855 -0.5686 0.6640
vn -0.7290 0.1469 0.6686
vn 0.4343 -0.1993 -0.8785
vn -0.7381 0.1735 0.6520
vn -0.7538 0.3443 0.5598
vn -0.9562 0.1428 -0.2554
vn -0.8824 0.2067 -0.4227
vn -0.4575 -0.6235 -0.6340
vn 0.5318 -0.4806 0.6973
vn 0.5517 -0.4765 0.6845
vn 0.5855 -0.4686 0.6615
vn -0.4782 -0.5500 -0.6847
vn -0.3308 -0.7563 -0.5644
vn 0.5013 -0.4807 0.7195
vn 0.4978 -0.4870 0.7177
vn 0.8980 0.3467 0.2711
vn 0.9020 0.3238 0.2856
vn 0.9800 0.1095 0.1663
vn 0.9338 0.3495 0.0773
vn 0.9930 -0.0920 0.0737
vn -0.8726 0.1956 -0.4475
vn -0.4654 -0.8056 -0.3667
vn -0.7305 0.2587 -0.6321
vn 0.4327 -0.0909 -0.8969
vn 0.4389 -0.1668 -0.8829
vn 0.4335 -0.0987 -0.8957
vn 0.1860 -0.2764 -0.9429
vn 0.1775 0.2131 -0.9608
vn 0.3831 0.2308 -0.8944
vn 0.4193 0.0200 -0.9076
usemtl Material.001
s 1
f 3/1/1 4/2/2 5/3/3
f 1/4/4 23/5/5 4/2/6
f 4/2/7 6/6/7 5/3/7
f 5/3/8 8/7/9 2/8/10
f 5/3/11 6/6/11 9/9/11
f 5/3/12 9/9/12 10/10/12
f 7/11/13 11/12/13 6/6/13
f 12/13/14 14/14/14 13/15/14
f 12/13/15 8/7/15 14/14/15
f 14/14/16 15/16/16 13/15/16
f 8/7/17 10/10/17 16/17/17
f 16/17/18 17/18/19 14/14/20
f 16/17/21 11/12/21 17/18/21
f 17/18/22 19/19/22 32/20/22
f 18/21/23 19/19/23 17/18/23
f 11/12/24 20/22/24 18/21/24
f 11/12/25 7/11/25 20/22/25
f 20/22/26 7/11/26 21/23/26
f 25/24/27 26/25/28 27/26/29
f 25/24/30 28/27/30 24/28/30
f 24/28/31 28/27/31 22/29/31
f 28/27/32 30/30/33 22/29/34
f 29/31/35 31/32/35 27/26/35
f 31/32/36 32/20/36 30/30/36
f 30/30/37 19/19/37 21/23/37
f 33/33/38 13/15/38 15/16/38
f 30/30/39 32/20/39 19/19/39
f 27/26/40 34/34/40 29/31/40
f 15/16/41 17/18/41 32/20/41
f 22/29/42 30/30/42 21/23/42
f 12/13/43 33/33/44 34/34/45
f 34/34/45 35/35/46 12/13/43
f 33/33/47 12/13/47 13/15/47
f 1/4/48 2/8/48 26/25/48
f 22/29/49 36/36/49 24/28/49
f 3/1/50 1/4/51 4/2/52
f 2/8/53 3/1/1 5/3/3
f 4/2/6 23/5/5 7/11/54
f 4/2/55 7/11/55 6/6/55
f 5/3/56 10/10/56 8/7/56
f 6/6/57 11/12/57 16/17/57
f 6/6/58 16/17/58 9/9/58
f 9/9/59 16/17/59 10/10/59
f 14/14/60 8/7/60 16/17/60
f 14/14/20 17/18/19 15/16/61
f 17/18/62 11/12/62 18/21/62
f 27/26/29 26/25/28 34/34/63
f 19/19/64 18/21/64 21/23/64
f 18/21/65 20/22/65 21/23/65
f 21/23/66 7/11/66 22/29/66
f 7/11/67 23/5/67 22/29/67
f 25/24/68 27/26/68 28/27/68
f 31/32/69 15/16/70 32/20/71
f 27/26/72 30/30/33 28/27/32
f 27/26/73 31/32/73 30/30/73
f 29/31/74 33/33/74 15/16/74
f 29/31/75 15/16/70 31/32/69
f 26/25/76 35/35/76 34/34/76
f 26/25/77 2/8/77 35/35/77
f 35/35/78 2/8/10 8/7/9
f 12/13/79 35/35/79 8/7/79
f 34/34/80 33/33/80 29/31/80
f 22/29/81 23/5/81 36/36/81
f 36/36/82 25/24/82 24/28/82
f 23/5/83 1/4/83 36/36/83
f 36/36/84 1/4/85 37/37/86
f 37/37/87 1/4/87 26/25/87
f 25/24/88 37/37/88 26/25/88
f 3/1/50 2/8/89 1/4/51
f 37/37/86 25/24/90 36/36/84
