# Blender v2.81 (sub 16) OBJ File: ''
# www.blender.org
mtllib Rock2.mtl
o Cube_Cube.001
v -0.606789 0.551300 0.173287
v -0.336839 0.069093 0.504348
v -0.586139 -0.339985 0.337688
v -0.477926 -0.477111 0.231381
v -0.746231 -0.299914 0.140947
v -0.725634 -0.003531 0.057812
v -0.560000 0.316166 -0.243528
v -0.503286 0.575168 -0.113761
v -0.513883 -0.586284 -0.004558
v -0.721329 -0.390942 -0.061896
v -0.551240 -0.109276 -0.455094
v -0.436784 -0.105549 -0.605696
v -0.336625 0.437143 -0.537114
v -0.303578 -0.066057 -0.719290
v -0.131380 0.439379 -0.705873
v 0.154383 -0.505522 -0.521812
v 0.347694 -0.523141 -0.445292
v 0.300158 0.526623 -0.561937
v 0.358422 0.103113 -0.531096
v 0.516131 -0.101735 -0.444092
v 0.731233 -0.212338 -0.265658
v 0.584892 0.383934 -0.243965
v 0.512936 -0.571268 -0.319369
v 0.740319 -0.504389 -0.159505
v 0.715244 -0.202955 -0.025049
v 0.454599 0.591606 0.004177
v 0.587507 0.115445 0.166325
v 0.718351 -0.496209 0.073930
v 0.683422 -0.662609 -0.034027
v 0.444324 0.297571 0.533549
v 0.556888 -0.201145 0.382316
v 0.314049 -0.339203 0.414607
v 0.518130 0.095471 0.501802
v 0.518596 -0.095352 0.513149
v 0.421484 -0.759244 0.081604
v 0.666800 -0.660066 -0.117987
v 0.336862 0.058654 0.588252
v 0.185909 -0.241373 0.635140
v -0.008517 0.051987 0.853174
v 0.156555 0.488847 0.751618
v -0.008563 0.352681 0.827894
v -0.008877 0.616597 0.751824
v -0.181446 -0.461376 0.770405
v -0.363784 -0.514134 0.621099
v -0.155539 -0.567824 0.680788
v 0.001931 -0.614049 -0.270695
v -0.230791 -0.402042 -0.348605
v -0.033496 -0.824791 0.065146
v -0.363374 -0.716441 0.073800
v 0.172559 -0.846792 0.177041
v -0.350429 -0.615175 0.263127
v -0.002552 -0.660251 0.475203
v 0.168250 0.833056 -0.361315
v -0.311895 0.621411 -0.396929
v 0.425680 0.645052 -0.335886
v 0.185736 0.856242 -0.113384
v -0.216387 0.646985 -0.064721
v 0.135696 0.854662 0.147352
v 0.255792 0.653311 0.441913
v -0.019418 0.817627 0.558292
v -0.116849 0.844427 0.524135
v -0.319223 0.741526 0.395792
v -0.539003 0.624540 0.197116
v 0.008389 0.733396 -0.587920
vt 0.116516 0.806817
vt 0.116516 0.806817
vt 0.116516 0.806817
vt 0.116516 0.806817
vt 0.116516 0.806817
vt 0.116516 0.806817
vt 0.116516 0.806817
vt 0.116516 0.806817
vt 0.116516 0.806817
vt 0.116516 0.806817
vt 0.116516 0.806817
vt 0.116516 0.806817
vt 0.116516 0.806817
vt 0.116516 0.806817
vt 0.116516 0.806817
vt 0.116516 0.806817
vt 0.116516 0.806817
vt 0.116516 0.806817
vt 0.116516 0.806817
vt 0.116516 0.806817
vt 0.116516 0.806817
vt 0.116516 0.806817
vt 0.116516 0.806817
vt 0.116516 0.806817
vt 0.116516 0.806817
vt 0.116516 0.806817
vt 0.116516 0.806817
vt 0.116516 0.806817
vt 0.116516 0.806817
vt 0.116516 0.806817
vt 0.116516 0.806817
vt 0.116516 0.806817
vt 0.116516 0.806817
vt 0.116516 0.806817
vt 0.116516 0.806817
vt 0.116516 0.806817
vt 0.116516 0.806817
vt 0.116516 0.806817
vt 0.116516 0.806817
vt 0.116516 0.806817
vt 0.116516 0.806817
vt 0.116516 0.806817
vt 0.116516 0.806817
vt 0.116516 0.806817
vt 0.116516 0.806817
vt 0.116516 0.806817
vt 0.116516 0.806817
vt 0.116516 0.806817
vt 0.116516 0.806817
vt 0.116516 0.806817
vt 0.116516 0.806817
vt 0.116516 0.806817
vt 0.116516 0.806817
vt 0.116516 0.806817
vt 0.116516 0.806817
vt 0.116516 0.806817
vt 0.116516 0.806817
vt 0.116516 0.806817
vt 0.116516 0.806817
vt 0.116516 0.806817
vt 0.116516 0.806817
vt 0.116516 0.806817
vt 0.116516 0.806817
vt 0.116516 0.806817
vn -0.7131 0.1090 0.6926
vn -0.7240 0.1377 0.6759
vn -0.7421 0.1904 0.6427
vn -0.7048 0.0887 0.7039
vn -0.5953 -0.7300 0.3357
vn -0.9487 0.1447 0.2810
vn -0.8926 0.3424 -0.2934
vn -0.9903 0.0308 -0.1354
vn -0.8524 -0.0754 -0.5175
vn -0.7484 0.1436 -0.6475
vn -0.9280 0.0437 -0.3701
vn -0.7268 0.2163 -0.6519
vn -0.6698 0.2135 -0.7112
vn 0.3648 -0.0379 -0.9303
vn -0.1526 0.3729 -0.9152
vn 0.3023 0.0727 -0.9504
vn 0.3208 -0.0248 -0.9468
vn -0.8126 0.3224 -0.4854
vn -0.8139 0.3093 -0.4918
vn -0.8176 0.2428 -0.5221
vn 0.6901 0.2416 -0.6822
vn 0.5524 -0.2157 -0.8052
vn 0.5531 -0.2188 -0.8039
vn 0.5516 -0.2149 -0.8060
vn 0.9702 0.2361 0.0553
vn 0.9456 0.2749 0.1739
vn 0.9220 0.3271 0.2072
vn 0.9243 0.3257 0.1989
vn 0.9236 0.3272 0.2000
vn 0.4069 -0.5442 0.7337
vn 0.9790 0.0145 0.2033
vn 0.8149 0.0364 0.5785
vn 0.7910 0.0382 0.6106
vn 0.9285 0.3061 0.2102
vn 0.4632 -0.5014 0.7308
vn 0.4691 -0.5084 0.7221
vn 0.4471 -0.4827 0.7531
vn 0.4963 -0.6492 0.5764
vn 0.5279 -0.0656 0.8468
vn 0.5750 0.3092 0.7575
vn 0.5090 -0.1393 0.8494
vn 0.6278 -0.5077 0.5900
vn 0.6085 -0.0458 0.7922
vn 0.3643 0.0781 0.9280
vn -0.7256 0.0575 0.6857
vn -0.7258 0.0605 0.6852
vn -0.7264 0.0619 0.6845
vn -0.2701 -0.3062 0.9128
vn -0.6184 -0.0762 0.7821
vn 0.2633 -0.6082 0.7488
vn 0.4428 -0.6294 0.6386
vn 0.4280 0.0144 0.9036
vn 0.5255 -0.0397 0.8499
vn 0.5060 -0.0300 0.8620
vn 0.4805 0.6212 0.6191
vn 0.1101 0.8426 0.5272
vn 0.4212 0.6404 0.6422
vn 0.0385 -0.9155 -0.4004
vn -0.3981 -0.6680 -0.6287
vn -0.4161 -0.6790 -0.6047
vn -0.3747 -0.6531 -0.6581
vn -0.3390 -0.7410 -0.5797
vn -0.5501 -0.7933 -0.2611
vn -0.6411 -0.7664 -0.0397
vn -0.2769 -0.8005 -0.5315
vn 0.1147 -0.8629 -0.4923
vn -0.1082 -0.9938 0.0236
vn -0.0633 -0.9949 -0.0791
vn -0.2783 -0.8476 0.4519
vn -0.2605 -0.9382 0.2279
vn -0.2824 -0.9295 0.2372
vn -0.2816 -0.9298 0.2368
vn -0.7377 -0.6197 0.2679
vn -0.7433 -0.6506 0.1559
vn -0.7401 -0.6283 0.2398
vn -0.2420 0.9703 -0.0051
vn 0.1493 0.9882 0.0346
vn -0.4680 0.8797 -0.0845
vn 0.0733 0.9971 0.0201
vn 0.1096 0.9095 0.4010
vn 0.2073 0.9642 0.1652
vn -0.3040 0.9176 -0.2563
vn 0.5869 0.6992 0.4082
vn 0.5889 0.7012 0.4018
vn 0.5776 0.7642 0.2869
vn 0.5892 0.6200 0.5181
vn -0.9344 0.2095 -0.2881
vn -0.9260 0.1580 -0.3429
vn -0.9357 0.2519 -0.2471
vn -0.7252 0.6868 -0.0480
vn -0.7480 0.6003 0.2831
vn -0.6889 0.6995 -0.1902
vn -0.6546 -0.6891 0.3108
vn -0.6411 -0.7406 -0.2012
vn -0.6403 -0.7673 -0.0349
vn -0.9155 0.1094 -0.3871
vn -0.4614 -0.6631 -0.5894
vn -0.8016 0.3987 -0.4455
vn -0.2786 -0.7323 -0.6214
vn -0.6194 0.2310 -0.7503
vn -0.1910 0.0912 -0.9773
vn 0.1067 -0.0362 -0.9936
vn -0.4301 -0.7432 -0.5125
vn -0.3588 -0.6672 -0.6527
vn 0.2957 -0.1078 -0.9492
vn 0.3026 -0.1345 -0.9436
vn 0.3403 -0.1334 -0.9308
vn 0.0202 0.3640 -0.9312
vn 0.7563 0.0566 -0.6518
vn 0.5538 -0.2191 -0.8033
vn 0.6714 0.1908 -0.7162
vn 0.9718 0.0846 0.2203
vn 0.9662 0.0915 0.2409
vn 0.9144 0.1381 0.3805
vn 0.6052 -0.2552 -0.7540
vn 0.9938 0.0641 0.0913
vn 0.9974 0.0325 0.0650
vn 0.9212 0.3283 0.2090
vn 0.9589 -0.2659 0.0996
vn 0.9440 0.1165 0.3086
vn 0.9508 0.1065 0.2910
vn 0.9270 0.1461 0.3455
vn 0.9706 0.0644 0.2320
vn 0.5555 -0.6982 -0.4515
vn 0.6891 -0.4721 -0.5498
vn 0.8684 -0.4597 -0.1858
vn 0.3010 -0.7646 -0.5698
vn 0.5723 -0.0704 0.8170
vn 0.2104 0.2710 0.9393
vn -0.4134 0.2517 0.8751
vn -0.3513 0.2589 0.8998
vn 0.5607 -0.4936 0.6648
vn 0.4808 -0.2951 0.8257
vn 0.4207 0.0549 0.9055
vn -0.7186 0.1320 0.6828
vn -0.6988 0.1464 0.7002
vn -0.7273 0.0621 0.6835
vn 0.7089 0.5030 0.4943
vn -0.6926 0.1990 0.6933
vn -0.7230 0.1676 0.6702
vn -0.7185 -0.6801 0.1458
vn 0.5688 -0.5041 0.6499
vn 0.0599 -0.9290 -0.3652
vn 0.0363 -0.9080 -0.4174
vn 0.0255 -0.9074 -0.4196
vn 0.3095 -0.9466 -0.0899
vn 0.1861 -0.8410 -0.5081
vn -0.7102 -0.5914 0.3819
vn -0.2645 -0.8427 0.4688
vn -0.7247 -0.5858 0.3629
vn 0.4615 -0.6045 0.6493
vn -0.3293 -0.8753 0.3542
vn 0.5626 -0.4204 0.7118
vn 0.5943 0.5210 -0.6127
vn 0.6715 0.5181 -0.5297
vn 0.7743 0.2708 -0.5719
vn -0.7736 0.4462 -0.4500
vn 0.8522 0.5231 0.0097
vn 0.5609 0.7212 -0.4064
vn 0.5932 0.7966 -0.1163
vn -0.4658 0.8835 -0.0498
vn 0.6880 0.7236 0.0552
vn -0.2104 0.9615 -0.1769
vn -0.2476 0.9425 -0.2243
vn -0.2369 0.9484 -0.2106
vn 0.6654 0.7347 0.1322
vn 0.7437 0.6195 0.2512
vn 0.6762 0.7069 0.2075
vn 0.7620 0.5914 0.2637
vn -0.3855 0.8925 -0.2341
vn -0.2683 0.9301 -0.2509
vn 0.8101 0.5057 0.2966
vn -0.5615 0.5474 -0.6205
vn -0.5948 -0.6912 0.4105
vn -0.9410 0.1350 -0.3104
vn -0.5450 0.5222 -0.6559
vn 0.4986 -0.5430 0.6757
vn 0.4476 -0.3231 0.8338
vn -0.4420 -0.6940 -0.5683
vn -0.3079 -0.9186 0.2478
vn -0.4019 0.9154 -0.0215
vn 0.4990 0.6147 -0.6108
vn -0.6666 0.2949 0.6846
vn -0.7122 0.4983 0.4944
usemtl Material.002
s 1
f 2/1/1 5/2/2 3/3/3
f 1/4/4 5/2/2 2/1/1
f 3/3/5 5/2/5 4/5/5
f 1/4/6 6/6/6 5/2/6
f 1/4/7 8/7/7 7/8/7
f 6/6/8 10/9/8 5/2/8
f 11/10/9 12/11/10 10/9/11
f 13/12/12 12/11/10 11/10/9
f 13/12/12 14/13/13 12/11/10
f 14/13/14 17/14/14 16/15/14
f 15/16/15 18/17/16 19/18/17
f 7/8/18 13/12/19 11/10/20
f 20/19/21 19/18/21 21/20/21
f 17/14/22 21/20/23 23/21/24
f 22/22/25 25/23/25 21/20/25
f 22/22/26 27/24/26 25/23/26
f 26/25/27 30/26/28 27/24/29
f 28/27/30 31/28/30 32/29/30
f 27/24/31 33/30/32 34/31/33
f 27/24/34 30/26/34 33/30/34
f 35/32/35 28/27/36 32/29/37
f 34/31/38 38/33/38 32/29/38
f 34/31/39 37/34/40 39/35/41
f 32/29/42 38/33/42 52/36/42
f 40/37/43 39/35/43 37/34/43
f 40/37/44 41/38/44 39/35/44
f 39/35/45 41/38/46 2/1/47
f 43/39/48 44/40/49 45/41/50
f 31/28/51 34/31/51 32/29/51
f 33/30/52 30/26/53 37/34/54
f 40/37/55 60/42/56 42/43/57
f 17/14/58 23/21/58 46/44/58
f 47/45/59 46/44/60 9/46/61
f 46/44/62 49/47/63 9/46/64
f 48/48/65 49/47/65 46/44/65
f 35/32/66 50/49/66 46/44/66
f 48/48/67 50/49/68 51/50/69
f 52/36/70 45/41/71 51/50/72
f 51/50/73 44/40/74 4/5/75
f 54/51/76 8/7/76 57/52/76
f 56/53/77 57/52/78 58/54/79
f 61/55/80 60/42/56 58/54/81
f 57/52/82 62/56/82 61/55/82
f 60/42/83 59/57/84 58/54/85
f 60/42/83 40/37/86 59/57/84
f 7/8/87 6/6/88 1/4/89
f 1/4/90 63/58/91 8/7/92
f 5/2/93 10/9/94 9/46/95
f 6/6/88 7/8/87 10/9/96
f 9/46/95 10/9/94 12/11/97
f 13/12/19 7/8/18 8/7/98
f 9/46/99 12/11/99 47/45/99
f 13/12/100 15/16/101 14/13/102
f 47/45/103 12/11/103 16/15/103
f 12/11/104 14/13/104 16/15/104
f 14/13/102 15/16/101 19/18/105
f 14/13/102 19/18/105 17/14/106
f 19/18/107 20/19/107 17/14/107
f 18/17/16 15/16/15 64/59/108
f 19/18/109 18/17/109 22/22/109
f 17/14/22 20/19/110 21/20/23
f 21/20/111 19/18/111 22/22/111
f 28/27/112 25/23/113 27/24/114
f 23/21/115 21/20/115 24/60/115
f 21/20/116 28/27/116 24/60/116
f 21/20/117 25/23/113 28/27/112
f 22/22/118 26/25/27 27/24/29
f 24/60/119 28/27/119 29/61/119
f 27/24/120 31/28/121 28/27/122
f 31/28/121 27/24/120 34/31/123
f 36/62/124 24/60/125 29/61/126
f 36/62/124 23/21/127 24/60/125
f 30/26/53 40/37/128 37/34/54
f 40/37/129 42/43/130 41/38/131
f 38/33/132 43/39/48 45/41/50
f 38/33/133 39/35/133 43/39/133
f 34/31/33 33/30/32 37/34/134
f 39/35/135 2/1/136 43/39/48
f 43/39/48 2/1/136 44/40/49
f 2/1/47 41/38/46 1/4/137
f 30/26/138 59/57/138 40/37/138
f 41/38/131 42/43/130 1/4/139
f 44/40/140 2/1/140 3/3/140
f 44/40/141 3/3/141 4/5/141
f 52/36/142 38/33/132 45/41/50
f 17/14/143 46/44/143 16/15/143
f 23/21/144 35/32/144 46/44/144
f 23/21/127 36/62/124 35/32/145
f 36/62/146 29/61/146 35/32/146
f 50/49/68 48/48/67 46/44/147
f 9/46/64 49/47/63 4/5/148
f 48/48/67 51/50/69 49/47/149
f 4/5/75 49/47/150 51/50/73
f 35/32/151 52/36/151 50/49/151
f 50/49/152 52/36/152 51/50/152
f 35/32/153 32/29/153 52/36/153
f 18/17/154 55/63/155 22/22/156
f 13/12/157 8/7/157 54/51/157
f 22/22/158 55/63/158 26/25/158
f 55/63/155 53/64/159 56/53/160
f 53/64/161 57/52/161 56/53/161
f 55/63/162 56/53/162 26/25/162
f 8/7/163 63/58/164 57/52/165
f 26/25/166 56/53/77 58/54/79
f 26/25/167 58/54/168 59/57/169
f 58/54/170 57/52/170 61/55/170
f 57/52/165 63/58/164 62/56/171
f 26/25/167 59/57/169 30/26/172
f 42/43/57 60/42/56 61/55/80
f 64/59/173 13/12/173 54/51/173
f 9/46/95 4/5/174 5/2/93
f 10/9/11 7/8/175 11/10/9
f 15/16/15 13/12/176 64/59/108
f 35/32/35 29/61/177 28/27/36
f 39/35/41 38/33/178 34/31/39
f 47/45/59 16/15/179 46/44/60
f 45/41/71 44/40/180 51/50/72
f 57/52/181 53/64/181 64/59/181 54/51/181
f 64/59/182 53/64/159 55/63/155 18/17/154
f 62/56/183 1/4/183 42/43/183 61/55/183
f 1/4/90 62/56/184 63/58/91
