# Blender v2.82 (sub 7) OBJ File: ''
# www.blender.org
mtllib GrassFromGalapagos.mtl
o Cube
v 0.618053 -0.591629 -0.620937
v 0.438011 -1.000000 -0.438011
v 0.618053 -0.591629 0.660580
v 0.438011 -1.000000 0.438011
v -0.663464 -0.591629 -0.620937
v -0.438011 -1.000000 -0.438011
v -0.663464 -0.591629 0.660580
v -0.438011 -1.000000 0.438011
v -0.438011 -1.000000 0.107379
v 0.618053 -0.591629 0.176904
v -0.663464 -0.591629 0.176904
v 0.438011 -1.000000 0.107379
v -0.126734 -1.000000 -0.438011
v -0.208103 -0.591629 0.660580
v -0.126734 -1.000000 0.438011
v -0.208103 -0.591629 -0.620937
v -0.237001 -0.591629 0.200807
v -0.971579 0.378957 0.740406
v -0.663464 -0.591629 -0.222992
v -0.237001 -0.591629 -0.321016
v 0.936360 0.667219 -0.775558
v -0.939647 0.713922 -1.017695
v 0.280838 -0.591629 -0.319018
v 0.173108 -0.591629 0.660580
v 0.303860 -0.591629 0.200807
v 1.042771 0.471206 0.921160
v 0.436074 1.040360 0.221650
v -0.105782 0.545091 0.933382
v -0.193409 0.891976 -0.629179
v -0.951233 0.795071 -0.172361
vt 0.045351 0.379555
vt 0.249108 0.379555
vt 0.249108 0.583312
vt 0.045351 0.379555
vt 0.249108 0.583312
vt 0.045351 0.583312
vt 0.493811 0.564745
vt 0.590703 0.494348
vt 0.553694 0.380445
vt 0.433928 0.380445
vt 0.396919 0.494348
vt 0.391933 0.360988
vt 0.595690 0.360988
vt 0.595690 0.564745
vt 0.391933 0.564745
vt 0.707569 0.360988
vt 0.911326 0.360988
vt 0.911326 0.564745
vt 0.707569 0.564745
vt 0.707569 0.360988
vt 0.911326 0.360988
vt 0.911326 0.564745
vt 0.707569 0.564745
vt 0.045351 0.379555
vt 0.249108 0.379555
vt 0.249108 0.583312
vt 0.045351 0.583312
vt 0.391933 0.360988
vt 0.595690 0.360988
vt 0.595690 0.564745
vt 0.707569 0.360988
vt 0.911326 0.360988
vt 0.707569 0.564745
vt 0.391933 0.360988
vt 0.595690 0.360988
vt 0.595690 0.564745
vt 0.391933 0.564745
vt 0.493811 0.564745
vt 0.590703 0.494348
vt 0.553694 0.380445
vt 0.433928 0.380445
vt 0.396919 0.494348
vt 0.391933 0.360988
vt 0.595690 0.360988
vt 0.595690 0.564745
vt 0.391933 0.360988
vt 0.595690 0.360988
vt 0.595690 0.564745
vt 0.045351 0.379555
vt 0.249108 0.379555
vt 0.045351 0.379555
vt 0.045351 0.379555
vt 0.249108 0.379555
vt 0.391933 0.360988
vt 0.595690 0.564745
vt 0.707569 0.360988
vt 0.911326 0.564745
vt 0.707569 0.360988
vt 0.707569 0.360988
vt 0.911326 0.360988
vt 0.911326 0.564745
vt 0.391933 0.360988
vt 0.391933 0.360988
vt 0.595690 0.360988
vt 0.391933 0.360988
vt 0.595690 0.360988
vt 0.045351 0.379555
vt 0.249108 0.379555
vt 0.249108 0.583312
vt 0.391933 0.360988
vt 0.391933 0.360988
vt 0.595690 0.360988
vt 0.391933 0.360988
vt 0.595690 0.360988
vt 0.595690 0.360988
vt 0.707569 0.360988
vt 0.911326 0.360988
vt 0.707569 0.360988
vt 0.911326 0.360988
vt 0.707569 0.360988
vt 0.911326 0.360988
vt 0.249108 0.379555
vt 0.045351 0.379555
vt 0.045351 0.379555
vt 0.249108 0.379555
vt 0.595690 0.360988
vt 0.391933 0.360988
vn 0.0000 -0.0820 0.9966
vn 0.0000 -0.4786 0.8781
vn -0.8754 -0.4833 0.0000
vn 0.9150 -0.4034 0.0000
vn 0.0000 -0.4088 -0.9126
vn 0.1886 0.5394 0.8206
vn -0.5897 0.5285 0.6106
vn 0.0000 -0.2381 0.9712
vn -0.6784 0.2884 -0.6758
vn 0.7831 0.6200 -0.0492
vn -0.9531 -0.3026 0.0000
vn 0.0480 0.5129 -0.8571
vn 0.8890 0.4579 0.0000
vn 0.9695 -0.2451 0.0000
vn 0.0000 -0.1219 -0.9925
vn 0.0000 0.5417 -0.8406
vn 0.0000 -0.2908 -0.9568
vn -0.9783 -0.2070 0.0000
vn 0.8585 0.5062 0.0827
vn 0.5254 -0.0099 -0.8508
vn 0.9286 -0.3711 0.0000
vn -0.0613 0.5888 -0.8059
vn -0.7314 0.6495 -0.2080
vn 0.0000 -0.0128 0.9999
vn 0.0758 -0.0189 0.9969
vn 0.8222 0.1070 -0.5591
vn 0.0000 -0.2334 0.9724
vn 0.9482 0.1679 0.2697
vn -0.9953 0.0746 0.0626
vn 0.6636 0.3503 0.6610
vn -0.9996 0.0294 0.0000
vn -0.9953 0.0093 -0.0959
vn -0.2240 -0.0109 -0.9745
vn -0.9791 -0.2032 0.0000
vn -0.0544 0.2332 0.9709
usemtl Material
s off
f 7/1/1 14/2/1 18/3/1
f 15/4/2 14/2/2 7/5/2 8/6/2
f 9/7/3 11/8/3 19/9/3 5/10/3 6/11/3
f 12/12/4 10/13/4 3/14/4 4/15/4
f 13/16/5 16/17/5 1/18/5 2/19/5
f 2/20/4 1/21/4 10/22/4 12/23/4
f 8/24/3 7/25/3 11/26/3 9/27/3
f 19/28/6 20/29/6 22/30/6
f 16/31/7 23/32/7 10/22/7 21/33/7
f 6/34/5 5/35/5 16/36/5 13/37/5
f 4/38/2 3/39/2 24/40/2 14/41/2 15/42/2
f 24/43/8 3/44/8 26/45/8
f 23/46/9 17/47/9 27/48/9
f 14/49/10 17/50/10 18/3/10
f 11/51/11 7/25/11 18/3/11
f 17/52/12 11/53/12 18/3/12
f 17/54/13 20/29/13 30/55/13
f 10/56/14 1/21/14 21/57/14
f 1/58/15 16/17/15 21/57/15
f 25/59/16 17/60/16 28/61/16
f 16/62/17 5/35/17 22/30/17
f 5/63/18 19/64/18 22/30/18
f 20/65/19 16/66/19 22/30/19
f 23/67/20 16/68/20 29/69/20
f 3/70/21 10/13/21 26/45/21
f 10/71/22 25/72/22 26/45/22
f 25/73/23 24/74/23 26/45/23
f 17/54/24 25/72/24 27/48/24
f 25/73/25 10/13/25 27/48/25
f 10/71/26 23/75/26 27/48/26
f 14/76/27 24/77/27 28/61/27
f 24/78/28 25/79/28 28/61/28
f 17/80/29 14/81/29 28/61/29
f 17/52/30 23/82/30 29/69/30
f 20/83/31 17/50/31 29/69/31
f 16/84/32 20/85/32 29/69/32
f 20/65/33 19/64/33 30/55/33
f 19/28/34 11/86/34 30/55/34
f 11/87/35 17/47/35 30/55/35
