# Blender v2.81 (sub 16) OBJ File: ''
# www.blender.org
mtllib Leaf.mtl
o Cone
v -0.007346 -0.020023 -0.562209
v 0.489157 -0.020023 0.239250
v -0.374010 -0.020023 0.286294
v 0.097303 2.096898 -0.040838
vt 0.265625 0.712656
vt 0.265625 0.472656
vt 0.473471 0.352656
vt 0.057779 0.352656
vt 0.765625 0.712656
vt 0.973471 0.352656
vt 0.557779 0.352656
vn 0.8468 0.0873 -0.5246
vn 0.0539 0.1408 0.9886
vn -0.9087 0.1416 -0.3927
vn 0.0000 -1.0000 0.0000
usemtl Material.001
s off
f 1/1/1 4/2/1 2/3/1
f 2/3/2 4/2/2 3/4/2
f 3/4/3 4/2/3 1/1/3
f 1/5/4 2/6/4 3/7/4
