# Blender v2.81 (sub 16) OBJ File: ''
# www.blender.org
mtllib AuraRingRed.mtl
o Circle
v -1.247205 -0.000000 0.833355
v -1.385819 -0.000000 0.574025
v -1.385819 -0.000000 0.574025
v -1.247205 -0.000000 0.833355
v 1.471178 0.000000 -0.292637
v 1.500000 0.000000 -0.000001
v 1.500000 0.000000 -0.000001
v 1.471178 0.000000 -0.292637
v -1.060660 -0.000000 1.060660
v -1.060660 -0.000000 1.060660
v 1.385819 0.000000 -0.574027
v 1.385819 0.000000 -0.574027
v -0.833355 -0.000000 1.247205
v -0.833355 -0.000000 1.247205
v 1.247203 0.000000 -0.833357
v 1.247203 0.000000 -0.833357
v -0.574025 -0.000000 1.385819
v -0.574025 -0.000000 1.385819
v -0.292636 0.000000 -1.471178
v 0.000000 0.000000 -1.500000
v 0.000000 0.000000 -1.500000
v -0.292636 0.000000 -1.471178
v 1.060659 0.000000 -1.060662
v 1.060659 0.000000 -1.060662
v -0.292635 -0.000000 1.471178
v -0.292635 -0.000000 1.471178
v -0.574025 0.000000 -1.385819
v -0.574025 0.000000 -1.385819
v 0.833354 0.000000 -1.247205
v 0.833354 0.000000 -1.247205
v 0.000000 -0.000000 1.500000
v 0.000000 -0.000000 1.500000
v -0.833355 0.000000 -1.247204
v -0.833355 0.000000 -1.247204
v 0.574023 0.000000 -1.385820
v 0.574023 0.000000 -1.385820
v 0.292636 -0.000000 1.471178
v 0.292636 -0.000000 1.471178
v -1.060660 0.000000 -1.060660
v -1.060660 0.000000 -1.060660
v 0.292633 0.000000 -1.471178
v 0.292633 0.000000 -1.471178
v 0.574026 -0.000000 1.385819
v 0.574026 -0.000000 1.385819
v -1.247205 0.000000 -0.833355
v -1.247205 0.000000 -0.833355
v 0.833356 -0.000000 1.247204
v 0.833356 -0.000000 1.247204
v -1.385819 0.000000 -0.574025
v -1.385819 0.000000 -0.574025
v 1.060661 -0.000000 1.060660
v 1.060661 -0.000000 1.060660
v -1.471178 0.000000 -0.292636
v -1.471178 0.000000 -0.292636
v 1.247205 -0.000000 0.833354
v 1.247205 -0.000000 0.833354
v -1.500000 0.000000 0.000000
v -1.500000 0.000000 0.000000
v 1.385820 -0.000000 0.574024
v 1.385820 -0.000000 0.574024
v -1.471178 -0.000000 0.292635
v -1.471178 -0.000000 0.292635
v 1.471178 -0.000000 0.292634
v 1.471178 -0.000000 0.292634
v -1.247205 0.500000 -0.833355
v -1.385819 0.500000 -0.574025
v 0.833356 0.500000 1.247204
v 1.060661 0.500000 1.060660
v -1.471178 0.500000 -0.292636
v 1.247205 0.500000 0.833354
v -1.500000 0.500000 0.000000
v 1.385820 0.500000 0.574024
v -1.471178 0.500000 0.292635
v 1.471178 0.500000 0.292634
v -1.385819 0.500000 0.574025
v 1.500000 0.500000 -0.000001
v -1.247205 0.500000 0.833355
v 1.471178 0.500000 -0.292637
v -1.060660 0.500000 1.060660
v 1.385819 0.500000 -0.574027
v -0.833355 0.500000 1.247205
v 1.247203 0.500000 -0.833357
v -0.574025 0.500000 1.385819
v 0.000000 0.500000 -1.500000
v -0.292636 0.500000 -1.471178
v 1.060659 0.500000 -1.060662
v -0.292635 0.500000 1.471178
v -0.574025 0.500000 -1.385819
v 0.833354 0.500000 -1.247205
v 0.000000 0.500000 1.500000
v -0.833355 0.500000 -1.247204
v 0.574023 0.500000 -1.385820
v 0.292636 0.500000 1.471178
v -1.060660 0.500000 -1.060660
v 0.292633 0.500000 -1.471178
v 0.574026 0.500000 1.385819
vt 0.095725 0.132154
vt 0.095725 0.132154
vt 0.095725 0.132154
vt 0.095725 0.132154
vt 0.095725 0.132154
vt 0.095725 0.132154
vt 0.095725 0.132154
vt 0.095725 0.132154
vt 0.095725 0.132154
vt 0.095725 0.132154
vt 0.095725 0.132154
vt 0.095725 0.132154
vt 0.095725 0.132154
vt 0.095725 0.132154
vt 0.095725 0.132154
vt 0.095725 0.132154
vt 0.095725 0.132154
vt 0.095725 0.132154
vt 0.095725 0.132154
vt 0.095725 0.132154
vt 0.095725 0.132154
vt 0.095725 0.132154
vt 0.095725 0.132154
vt 0.095725 0.132154
vt 0.095725 0.132154
vt 0.095725 0.132154
vt 0.095725 0.132154
vt 0.095725 0.132154
vt 0.095725 0.132154
vt 0.095725 0.132154
vt 0.095725 0.132154
vt 0.095725 0.132154
vt 0.095725 0.132154
vt 0.095725 0.132154
vt 0.095725 0.132154
vt 0.095725 0.132154
vt 0.095725 0.132154
vt 0.095725 0.132154
vt 0.095725 0.132154
vt 0.095725 0.132154
vt 0.095725 0.132154
vt 0.095725 0.132154
vt 0.095725 0.132154
vt 0.095725 0.132154
vt 0.095725 0.132154
vt 0.095725 0.132154
vt 0.095725 0.132154
vt 0.095725 0.132154
vt 0.095725 0.132154
vt 0.095725 0.132154
vt 0.095725 0.132154
vt 0.095725 0.132154
vt 0.095725 0.132154
vt 0.095725 0.132154
vt 0.095725 0.132154
vt 0.095725 0.132154
vt 0.095725 0.132154
vt 0.095725 0.132154
vt 0.095725 0.132154
vt 0.095725 0.132154
vt 0.095725 0.132154
vt 0.095725 0.132154
vt 0.095725 0.132154
vt 0.095725 0.132154
vt 0.095725 0.132154
vt 0.095725 0.132154
vt 0.095725 0.132154
vt 0.095725 0.132154
vt 0.095725 0.132154
vt 0.095725 0.132154
vt 0.095725 0.132154
vt 0.095725 0.132154
vt 0.095725 0.132154
vt 0.095725 0.132154
vt 0.095725 0.132154
vt 0.095725 0.132154
vt 0.095725 0.132154
vt 0.095725 0.132154
vt 0.095725 0.132154
vt 0.095725 0.132154
vt 0.095725 0.132154
vt 0.095725 0.132154
vt 0.095725 0.132154
vt 0.095725 0.132154
vt 0.095725 0.132154
vt 0.095725 0.132154
vt 0.095725 0.132154
vt 0.095725 0.132154
vt 0.095725 0.132154
vt 0.095725 0.132154
vt 0.095725 0.132154
vt 0.095725 0.132154
vt 0.095725 0.132154
vt 0.095725 0.132154
vt 0.095725 0.132154
vt 0.095725 0.132154
vn 0.0000 0.0000 1.0000
vn 0.8819 -0.0000 0.4714
vn -0.6344 0.0000 -0.7730
vn 0.9569 0.0000 0.2903
vn -0.7730 0.0000 -0.6344
vn 0.9952 0.0000 0.0980
vn -0.8819 0.0000 -0.4714
vn 0.9952 0.0000 -0.0980
vn -0.9569 -0.0000 -0.2903
vn 0.9569 -0.0000 -0.2903
vn -0.9952 0.0000 -0.0980
vn 0.8819 0.0000 -0.4714
vn -0.9952 0.0000 0.0980
vn 0.7730 0.0000 -0.6344
vn -0.9569 0.0000 0.2903
vn 0.6344 0.0000 -0.7730
vn -0.8819 -0.0000 0.4714
vn 0.4714 0.0000 -0.8819
vn 0.0980 -0.0000 0.9952
vn -0.7730 0.0000 0.6344
vn 0.2903 0.0000 -0.9569
vn 0.2903 -0.0000 0.9569
vn -0.6344 -0.0000 0.7730
vn 0.0980 0.0000 -0.9952
vn 0.4714 -0.0000 0.8819
vn -0.4714 -0.0000 0.8819
vn -0.0980 0.0000 -0.9952
vn 0.6344 -0.0000 0.7730
vn -0.2903 -0.0000 0.9569
vn -0.2903 0.0000 -0.9569
vn 0.7730 -0.0000 0.6344
vn -0.0980 -0.0000 0.9952
vn -0.4714 0.0000 -0.8819
usemtl Material.001
s 1
f 1/1/1 2/2/1 3/3/1 4/4/1
f 5/5/1 6/6/1 7/7/1 8/8/1
f 9/9/1 1/1/1 4/4/1 10/10/1
f 11/11/1 5/5/1 8/8/1 12/12/1
f 13/13/1 9/9/1 10/10/1 14/14/1
f 15/15/1 11/11/1 12/12/1 16/16/1
f 17/17/1 13/13/1 14/14/1 18/18/1
f 19/19/1 20/20/1 21/21/1 22/22/1
f 23/23/1 15/15/1 16/16/1 24/24/1
f 25/25/1 17/17/1 18/18/1 26/26/1
f 27/27/1 19/19/1 22/22/1 28/28/1
f 29/29/1 23/23/1 24/24/1 30/30/1
f 31/31/1 25/25/1 26/26/1 32/32/1
f 33/33/1 27/27/1 28/28/1 34/34/1
f 35/35/1 29/29/1 30/30/1 36/36/1
f 37/37/1 31/31/1 32/32/1 38/38/1
f 39/39/1 33/33/1 34/34/1 40/40/1
f 41/41/1 35/35/1 36/36/1 42/42/1
f 43/43/1 37/37/1 38/38/1 44/44/1
f 45/45/1 39/39/1 40/40/1 46/46/1
f 20/20/1 41/41/1 42/42/1 21/21/1
f 47/47/1 43/43/1 44/44/1 48/48/1
f 49/49/1 45/45/1 46/46/1 50/50/1
f 51/51/1 47/47/1 48/48/1 52/52/1
f 53/53/1 49/49/1 50/50/1 54/54/1
f 55/55/1 51/51/1 52/52/1 56/56/1
f 57/57/1 53/53/1 54/54/1 58/58/1
f 59/59/1 55/55/1 56/56/1 60/60/1
f 61/61/1 57/57/1 58/58/1 62/62/1
f 63/63/1 59/59/1 60/60/1 64/64/1
f 2/2/1 61/61/1 62/62/1 3/3/1
f 6/6/1 63/63/1 64/64/1 7/7/1
f 50/50/2 46/46/2 65/65/2 66/66/2
f 52/52/3 48/48/3 67/67/3 68/68/3
f 54/54/4 50/50/4 66/66/4 69/69/4
f 56/56/5 52/52/5 68/68/5 70/70/5
f 58/58/6 54/54/6 69/69/6 71/71/6
f 60/60/7 56/56/7 70/70/7 72/72/7
f 62/62/8 58/58/8 71/71/8 73/73/8
f 64/64/9 60/60/9 72/72/9 74/74/9
f 3/3/10 62/62/10 73/73/10 75/75/10
f 7/7/11 64/64/11 74/74/11 76/76/11
f 4/4/12 3/3/12 75/75/12 77/77/12
f 8/8/13 7/7/13 76/76/13 78/78/13
f 10/10/14 4/4/14 77/77/14 79/79/14
f 12/12/15 8/8/15 78/78/15 80/80/15
f 14/14/16 10/10/16 79/79/16 81/81/16
f 16/16/17 12/12/17 80/80/17 82/82/17
f 18/18/18 14/14/18 81/81/18 83/83/18
f 22/22/19 21/21/19 84/84/19 85/85/19
f 24/24/20 16/16/20 82/82/20 86/86/20
f 26/26/21 18/18/21 83/83/21 87/87/21
f 28/28/22 22/22/22 85/85/22 88/88/22
f 30/30/23 24/24/23 86/86/23 89/89/23
f 32/32/24 26/26/24 87/87/24 90/90/24
f 34/34/25 28/28/25 88/88/25 91/91/25
f 36/36/26 30/30/26 89/89/26 92/92/26
f 38/38/27 32/32/27 90/90/27 93/93/27
f 40/40/28 34/34/28 91/91/28 94/94/28
f 42/42/29 36/36/29 92/92/29 95/95/29
f 44/44/30 38/38/30 93/93/30 96/96/30
f 46/46/31 40/40/31 94/94/31 65/65/31
f 21/21/32 42/42/32 95/95/32 84/84/32
f 48/48/33 44/44/33 96/96/33 67/67/33
