# Blender v2.81 (sub 16) OBJ File: 'Tree.blend'
# www.blender.org
mtllib Tree.mtl
o Cylinder_Cylinder.001
v -0.000000 1.344158 0.000000
v 0.000000 10.001880 0.000000
v -0.000000 1.667477 -1.986804
v -0.000000 3.778756 -1.373819
v -0.000000 4.982406 -1.208260
v 0.000000 6.968180 -0.650964
v 0.000000 8.333395 -0.408130
v 0.195658 8.552614 -0.262090
v 0.481463 6.650279 -0.656678
v 0.597254 5.357927 -0.800474
v 0.992375 3.296403 -1.351542
v 1.010816 2.127630 -1.355307
v 0.391051 8.334383 -0.125403
v 0.637704 6.960147 -0.201698
v 1.152953 4.990090 -0.370811
v 1.342347 3.768316 -0.424773
v 1.898173 1.675327 -0.609960
v 0.316096 8.551760 0.099922
v 0.775910 6.654402 0.249776
v 0.967029 5.352963 0.305897
v 1.599352 3.301089 0.514068
v 1.635095 2.122366 0.517447
v 0.242517 8.333790 0.329471
v 0.393403 6.965087 0.527226
v 0.715564 4.985065 0.975116
v 0.829203 3.774789 1.111736
v 1.177677 1.670501 1.603510
v -0.000000 8.553138 0.324294
v -0.000000 6.647670 0.813725
v 0.000000 5.361028 0.989048
v -0.000000 3.293401 1.674732
v 0.000000 2.130927 1.675564
v -0.242516 8.333790 0.329472
v -0.393403 6.965083 0.527228
v -0.715565 4.985063 0.975116
v -0.829203 3.774789 1.111736
v -1.177678 1.670500 1.603509
v -0.316095 8.551760 0.099922
v -0.775911 6.654398 0.249776
v -0.967029 5.352967 0.305896
v -1.599353 3.301088 0.514069
v -1.635096 2.122363 0.517448
v -0.391051 8.334383 -0.125404
v -0.637703 6.960151 -0.201698
v -1.152954 4.990090 -0.370810
v -1.342348 3.768314 -0.424774
v -1.898173 1.675327 -0.609960
v -0.195658 8.552616 -0.262089
v -0.481464 6.650272 -0.656680
v -0.597253 5.357928 -0.800474
v -0.992374 3.296406 -1.351541
v -1.010815 2.127631 -1.355306
v 0.729133 3.045338 -1.012484
v 0.993060 3.457245 -0.328569
v 1.180262 3.068681 0.386713
v 0.597581 3.490392 0.839463
v 0.000000 3.031904 1.250546
v -0.597582 3.490394 0.839462
v -1.180263 3.068681 0.386713
v -0.993061 3.457243 -0.328570
v -0.729133 3.045337 -1.012484
v -0.000000 3.511413 -1.020737
v -0.000000 4.498166 -1.077014
v 0.511405 4.959276 -0.719896
v 1.018435 4.530166 -0.333672
v 0.849290 4.930883 0.281623
v 0.628416 4.509865 0.872571
v -0.000000 4.977242 0.875770
v -0.628414 4.509871 0.872569
v -0.849292 4.930878 0.281624
v -1.018436 4.530165 -0.333673
v -0.511404 4.959279 -0.719896
v -0.000001 6.256592 -0.589511
v 0.417488 5.993662 -0.580304
v 0.573412 6.223759 -0.189993
v 0.677170 6.005399 0.222062
v 0.344760 6.243842 0.485073
v 0.000000 5.987127 0.715839
v -0.344762 6.243839 0.485074
v -0.677171 6.005398 0.222062
v -0.573413 6.223758 -0.189991
v -0.417487 5.993664 -0.580304
v 0.000000 7.341202 -0.491820
v 0.235448 7.526368 -0.331534
v 0.463329 7.360520 -0.151812
v 0.391661 7.511626 0.129837
v 0.286514 7.348511 0.397861
v 0.000000 7.535674 0.402910
v -0.286516 7.348499 0.397865
v -0.391662 7.511623 0.129836
v -0.463330 7.360518 -0.151813
v -0.235449 7.526369 -0.331533
v 0.000001 8.860044 -0.198757
v 0.137929 8.785838 -0.191584
v 0.193103 8.847249 -0.063925
v 0.223252 8.791506 0.073170
v 0.116177 8.855093 0.163458
v -0.000001 8.782348 0.236722
v -0.116176 8.855095 0.163459
v -0.223252 8.791506 0.073170
v -0.193103 8.847248 -0.063926
v -0.137927 8.785843 -0.191583
v 0.659339 6.392009 -2.158071
v 0.066126 6.233014 -1.793355
v 0.347117 4.595009 -0.280648
v -0.000000 0.547374 -2.003154
v 1.419543 -0.026639 -1.934064
v 1.954375 0.542353 -0.617928
v 2.289514 -0.024692 0.736200
v 1.208910 0.545472 1.619682
v -0.000000 -0.027946 2.395407
v -1.208910 0.545473 1.619681
v -2.289514 -0.024692 0.736200
v -1.954375 0.542352 -0.617930
v -1.419543 -0.026638 -1.934064
v 0.000000 -1.000000 -0.698848
v 0.000000 1.423686 -0.372665
v 0.410773 -1.000000 -0.565380
v 0.219047 1.423686 -0.301492
v 0.664644 -1.000000 -0.215956
v 0.354426 1.423686 -0.115160
v 0.664644 -1.000000 0.215956
v 0.354426 1.423686 0.115160
v 0.410773 -1.000000 0.565380
v 0.219047 1.423686 0.301492
v -0.000000 -1.000000 0.698848
v -0.000000 1.423686 0.372665
v -0.410773 -1.000000 0.565380
v -0.219047 1.423686 0.301492
v -0.664644 -1.000000 0.215956
v -0.354426 1.423686 0.115160
v -0.664644 -1.000000 -0.215956
v -0.354426 1.423686 -0.115160
v -0.410772 -1.000000 -0.565380
v -0.219047 1.423686 -0.301493
v 0.000000 -0.007473 -0.382026
v 0.224549 -0.007473 -0.309065
v 0.363328 -0.007473 -0.118052
v 0.363328 -0.007473 0.118052
v 0.224549 -0.007473 0.309065
v -0.000000 -0.007473 0.382026
v -0.224549 -0.007473 0.309065
v -0.363328 -0.007473 0.118052
v -0.363328 -0.007473 -0.118052
v -0.224549 -0.007473 -0.309065
vt 0.165334 0.806856
vt 0.165333 0.806856
vt 0.165333 0.806856
vt 0.165333 0.806856
vt 0.165333 0.806856
vt 0.165333 0.806856
vt 0.165333 0.806856
vt 0.165333 0.806856
vt 0.165333 0.806856
vt 0.165334 0.806856
vt 0.165333 0.806856
vt 0.165333 0.806856
vt 0.165333 0.806856
vt 0.165334 0.806856
vt 0.165334 0.806856
vt 0.165333 0.806856
vt 0.165333 0.806856
vt 0.165334 0.806856
vt 0.165334 0.806856
vt 0.165333 0.806856
vt 0.165333 0.806856
vt 0.165334 0.806856
vt 0.165334 0.806856
vt 0.165333 0.806856
vt 0.165333 0.806856
vt 0.165334 0.806856
vt 0.165334 0.806856
vt 0.165333 0.806856
vt 0.165334 0.806856
vt 0.165333 0.806856
vt 0.165333 0.806856
vt 0.165333 0.806856
vt 0.165333 0.806856
vt 0.165333 0.806856
vt 0.165333 0.806856
vt 0.165333 0.806856
vt 0.165333 0.806856
vt 0.165334 0.806856
vt 0.165333 0.806856
vt 0.165333 0.806856
vt 0.165333 0.806856
vt 0.165333 0.806856
vt 0.165333 0.806856
vt 0.165333 0.806856
vt 0.165333 0.806856
vt 0.165333 0.806856
vt 0.165333 0.806856
vt 0.165333 0.806856
vt 0.165333 0.806856
vt 0.165333 0.806856
vt 0.165333 0.806856
vt 0.165333 0.806856
vt 0.165333 0.806856
vt 0.165333 0.806856
vt 0.165333 0.806856
vt 0.165333 0.806856
vt 0.165333 0.806856
vt 0.165333 0.806856
vt 0.165333 0.806856
vt 0.165333 0.806856
vt 0.165333 0.806856
vt 0.165333 0.806856
vt 0.165333 0.806856
vt 0.165333 0.806856
vt 0.165333 0.806856
vt 0.165333 0.806856
vt 0.165333 0.806856
vt 0.165333 0.806856
vt 0.165333 0.806856
vt 0.165333 0.806856
vt 0.165333 0.806856
vt 0.165333 0.806856
vt 0.165333 0.806856
vt 0.165333 0.806856
vt 0.165333 0.806856
vt 0.165333 0.806856
vt 0.165333 0.806856
vt 0.165333 0.806856
vt 0.165333 0.806856
vt 0.165333 0.806856
vt 0.165333 0.806856
vt 0.165333 0.806856
vt 0.165333 0.806856
vt 0.165333 0.806856
vt 0.165333 0.806856
vt 0.165333 0.806856
vt 0.165333 0.806856
vt 0.165333 0.806856
vt 0.165333 0.806856
vt 0.165333 0.806856
vt 0.165333 0.806856
vt 0.165333 0.806856
vt 0.165333 0.806856
vt 0.165333 0.806856
vt 0.165333 0.806856
vt 0.165333 0.806856
vt 0.165333 0.806856
vt 0.165333 0.806856
vt 0.165333 0.806856
vt 0.165333 0.806856
vt 0.165333 0.806856
vt 0.165334 0.806856
vt 0.165333 0.806856
vt 0.165333 0.806856
vt 0.165333 0.806856
vt 0.165333 0.806856
vt 0.165333 0.806856
vt 0.165333 0.806856
vt 0.165333 0.806856
vt 0.165333 0.806856
vt 0.165333 0.806856
vt 0.165333 0.806856
vt 0.562340 0.823261
vt 0.562340 0.823261
vt 0.562340 0.823261
vt 0.562340 0.823261
vt 0.562340 0.823261
vt 0.562340 0.823261
vt 0.562340 0.823261
vt 0.562340 0.823261
vt 0.562340 0.823261
vt 0.562340 0.823261
vt 0.562340 0.823261
vt 0.562340 0.823261
vt 0.562340 0.823261
vt 0.562340 0.823261
vt 0.562340 0.823261
vt 0.562340 0.823261
vt 0.562340 0.823261
vt 0.562340 0.823261
vt 0.562340 0.823261
vt 0.562340 0.823261
vt 0.562340 0.823261
vt 0.562340 0.823261
vt 0.562340 0.823261
vt 0.562340 0.823261
vt 0.562340 0.823261
vt 0.562340 0.823261
vt 0.562340 0.823261
vt 0.562340 0.823261
vt 0.562340 0.823261
vt 0.562340 0.823261
vn 0.4170 0.2160 -0.8829
vn 0.7106 0.2170 -0.6693
vn 0.9694 0.2190 0.1112
vn 0.8498 0.2183 0.4797
vn 0.1740 0.2151 0.9610
vn -0.1740 0.2151 0.9610
vn -0.8498 0.2183 0.4797
vn -0.9694 0.2190 0.1112
vn -0.7106 0.2170 -0.6693
vn -0.4170 0.2160 -0.8829
vn 0.3124 -0.4327 0.8457
vn 0.2301 -0.3934 0.8901
vn 0.3083 -0.4067 0.8600
vn 0.2628 -0.3933 0.8810
vn 0.2605 -0.3511 0.8994
vn 0.7058 -0.4389 0.5561
vn 0.7599 -0.4040 0.5092
vn 0.7212 -0.4123 0.5566
vn 0.7400 -0.4021 0.5391
vn 0.7744 -0.3577 0.5219
vn 0.8952 -0.4450 -0.0227
vn 0.9125 -0.4077 0.0341
vn 0.9083 -0.4180 -0.0131
vn 0.9138 -0.4061 -0.0027
vn 0.9311 -0.3619 0.0463
vn 0.7395 -0.4411 -0.5085
vn 0.7122 -0.4012 -0.5760
vn 0.7442 -0.4145 -0.5237
vn 0.7342 -0.4008 -0.5480
vn 0.7285 -0.3578 -0.5842
vn 0.2374 -0.4311 -0.8705
vn 0.3293 -0.3953 -0.8575
vn 0.2486 -0.4052 -0.8798
vn 0.2973 -0.3944 -0.8695
vn 0.3110 -0.3508 -0.8833
vn -0.2374 -0.4311 -0.8705
vn -0.3293 -0.3953 -0.8575
vn -0.2486 -0.4052 -0.8798
vn -0.2973 -0.3944 -0.8695
vn -0.3110 -0.3508 -0.8833
vn -0.7395 -0.4411 -0.5085
vn -0.7122 -0.4012 -0.5760
vn -0.7442 -0.4145 -0.5237
vn -0.7342 -0.4008 -0.5480
vn -0.7285 -0.3578 -0.5842
vn -0.8952 -0.4450 -0.0227
vn -0.9125 -0.4077 0.0341
vn -0.9083 -0.4180 -0.0131
vn -0.9138 -0.4061 -0.0027
vn -0.9311 -0.3619 0.0463
vn -0.7058 -0.4389 0.5561
vn -0.7599 -0.4040 0.5092
vn -0.7212 -0.4123 0.5566
vn -0.7400 -0.4021 0.5391
vn -0.7744 -0.3577 0.5219
vn -0.3124 -0.4327 0.8457
vn -0.2301 -0.3934 0.8901
vn -0.3083 -0.4067 0.8600
vn -0.2628 -0.3933 0.8810
vn -0.2605 -0.3511 0.8994
vn 0.1859 0.3149 -0.9308
vn 0.8140 0.3223 -0.4832
vn 0.9420 0.3238 -0.0883
vn 0.7019 0.3191 0.6368
vn 0.3876 0.3170 0.8656
vn -0.3876 0.3170 0.8656
vn -0.7019 0.3191 0.6368
vn -0.9420 0.3238 -0.0883
vn -0.8140 0.3223 -0.4832
vn -0.1859 0.3149 -0.9308
vn 0.4018 0.2739 -0.8738
vn 0.7048 0.2757 -0.6537
vn 0.9547 0.2801 0.1006
vn 0.8311 0.2788 0.4813
vn 0.1791 0.2719 0.9455
vn -0.1791 0.2719 0.9455
vn -0.8311 0.2788 0.4813
vn -0.9547 0.2801 0.1006
vn -0.7048 0.2757 -0.6537
vn -0.4018 0.2739 -0.8738
vn 0.1803 0.3015 -0.9363
vn 0.8216 0.3079 -0.4797
vn 0.9462 0.3091 -0.0958
vn 0.7006 0.3050 0.6451
vn 0.3954 0.3034 0.8669
vn -0.3954 0.3034 0.8669
vn -0.7006 0.3050 0.6451
vn -0.9462 0.3091 -0.0958
vn -0.8216 0.3079 -0.4797
vn -0.1803 0.3015 -0.9363
vn 0.4178 0.2612 -0.8702
vn 0.6974 0.2626 -0.6668
vn 0.9571 0.2662 0.1145
vn 0.8416 0.2653 0.4705
vn 0.1638 0.2595 0.9517
vn -0.1638 0.2595 0.9517
vn -0.8416 0.2653 0.4705
vn -0.9571 0.2662 0.1145
vn -0.6974 0.2626 -0.6668
vn -0.4178 0.2612 -0.8702
vn 0.1489 0.2317 -0.9613
vn 0.8552 0.2367 -0.4611
vn 0.9627 0.2373 -0.1296
vn 0.6920 0.2342 0.6829
vn 0.4353 0.2332 0.8695
vn -0.4353 0.2332 0.8695
vn -0.6920 0.2342 0.6829
vn -0.9627 0.2373 -0.1296
vn -0.8552 0.2367 -0.4611
vn -0.1489 0.2317 -0.9613
vn -0.3663 -0.8646 0.3439
vn -0.2094 -0.8637 0.4585
vn -0.4348 -0.8639 -0.2542
vn -0.4997 -0.8645 -0.0533
vn 0.0923 -0.8640 -0.4949
vn -0.0923 -0.8640 -0.4949
vn 0.4997 -0.8645 -0.0533
vn 0.4348 -0.8639 -0.2542
vn 0.2094 -0.8637 0.4585
vn 0.3663 -0.8646 0.3439
vn 0.3090 0.0062 -0.9510
vn 0.8090 0.0062 -0.5878
vn 1.0000 0.0062 0.0000
vn 0.8090 0.0062 0.5878
vn 0.3090 0.0062 0.9510
vn -0.3090 0.0062 0.9510
vn -0.8090 0.0062 0.5878
vn -1.0000 0.0062 0.0000
vn 0.0000 1.0000 -0.0000
vn -0.8090 0.0062 -0.5878
vn -0.3090 0.0062 -0.9510
vn 0.0000 -1.0000 0.0000
vn -0.2957 0.2905 -0.9100
vn -0.7741 0.2905 -0.5624
vn -0.9569 0.2905 0.0000
vn -0.7741 0.2905 0.5624
vn -0.2957 0.2905 0.9100
vn 0.2957 0.2905 0.9100
vn 0.7741 0.2905 0.5624
vn 0.9569 0.2905 0.0000
vn 0.7741 0.2905 -0.5624
vn 0.2957 0.2905 -0.9100
usemtl Tree_Albedo
s off
f 7/1/1 2/2/1 8/3/1
f 8/3/2 2/2/2 13/4/2
f 13/4/3 2/2/3 18/5/3
f 18/5/4 2/2/4 23/6/4
f 23/6/5 2/2/5 28/7/5
f 28/7/6 2/2/6 33/8/6
f 33/8/7 2/2/7 38/9/7
f 38/9/8 2/2/8 43/10/8
f 43/10/9 2/2/9 48/11/9
f 48/11/10 2/2/10 7/1/10
f 61/12/11 52/13/11 3/14/11 62/15/11
f 72/16/12 51/17/12 4/18/12 63/19/12
f 82/20/13 50/21/13 5/22/13 73/23/13
f 92/24/14 49/25/14 6/26/14 83/27/14
f 102/28/15 48/11/15 7/1/15 93/29/15
f 60/30/16 47/31/16 52/13/16 61/12/16
f 71/32/17 46/33/17 51/17/17 72/16/17
f 81/34/18 45/35/18 50/21/18 82/20/18
f 91/36/19 44/37/19 49/25/19 92/24/19
f 101/38/20 43/10/20 48/11/20 102/28/20
f 59/39/21 42/40/21 47/31/21 60/30/21
f 70/41/22 41/42/22 46/33/22 71/32/22
f 80/43/23 40/44/23 45/35/23 81/34/23
f 90/45/24 39/46/24 44/37/24 91/36/24
f 100/47/25 38/9/25 43/10/25 101/38/25
f 58/48/26 37/49/26 42/40/26 59/39/26
f 69/50/27 36/51/27 41/42/27 70/41/27
f 79/52/28 35/53/28 40/44/28 80/43/28
f 89/54/29 34/55/29 39/46/29 90/45/29
f 99/56/30 33/8/30 38/9/30 100/47/30
f 57/57/31 32/58/31 37/49/31 58/48/31
f 68/59/32 31/60/32 36/51/32 69/50/32
f 78/61/33 30/62/33 35/53/33 79/52/33
f 88/63/34 29/64/34 34/55/34 89/54/34
f 98/65/35 28/7/35 33/8/35 99/56/35
f 56/66/36 27/67/36 32/58/36 57/57/36
f 67/68/37 26/69/37 31/60/37 68/59/37
f 77/70/38 25/71/38 30/62/38 78/61/38
f 87/72/39 24/73/39 29/64/39 88/63/39
f 97/74/40 23/6/40 28/7/40 98/65/40
f 55/75/41 22/76/41 27/67/41 56/66/41
f 66/77/42 21/78/42 26/69/42 67/68/42
f 76/79/43 20/80/43 25/71/43 77/70/43
f 86/81/44 19/82/44 24/73/44 87/72/44
f 96/83/45 18/5/45 23/6/45 97/74/45
f 54/84/46 17/85/46 22/76/46 55/75/46
f 65/86/47 16/87/47 21/78/47 66/77/47
f 75/88/48 15/89/48 20/80/48 76/79/48
f 85/90/49 14/91/49 19/82/49 86/81/49
f 95/92/50 13/4/50 18/5/50 96/83/50
f 53/93/51 12/94/51 17/85/51 54/84/51
f 64/95/52 11/96/52 16/87/52 65/86/52
f 74/97/53 10/98/53 15/89/53 75/88/53
f 84/99/54 9/100/54 14/91/54 85/90/54
f 94/101/55 8/3/55 13/4/55 95/92/55
f 62/15/56 3/14/56 12/94/56 53/93/56
f 63/19/57 4/18/57 11/96/57 64/95/57
f 73/23/58 5/22/58 10/98/58 74/97/58
f 83/27/59 6/26/59 9/100/59 84/99/59
f 93/29/60 7/1/60 8/3/60 94/101/60
f 106/102/61 62/15/61 53/93/61 107/103/61
f 107/103/62 53/93/62 54/84/62 108/104/62
f 108/104/63 54/84/63 55/75/63 109/105/63
f 109/105/64 55/75/64 56/66/64 110/106/64
f 110/106/65 56/66/65 57/57/65 111/107/65
f 111/107/66 57/57/66 58/48/66 112/108/66
f 112/108/67 58/48/67 59/39/67 113/109/67
f 113/109/68 59/39/68 60/30/68 114/110/68
f 114/110/69 60/30/69 61/12/69 115/111/69
f 115/111/70 61/12/70 62/15/70 106/102/70
f 3/14/71 63/19/71 64/95/71 12/94/71
f 12/94/72 64/95/72 65/86/72 17/85/72
f 17/85/73 65/86/73 66/77/73 22/76/73
f 22/76/74 66/77/74 67/68/74 27/67/74
f 27/67/75 67/68/75 68/59/75 32/58/75
f 32/58/76 68/59/76 69/50/76 37/49/76
f 37/49/77 69/50/77 70/41/77 42/40/77
f 42/40/78 70/41/78 71/32/78 47/31/78
f 47/31/79 71/32/79 72/16/79 52/13/79
f 52/13/80 72/16/80 63/19/80 3/14/80
f 4/18/81 73/23/81 74/97/81 11/96/81
f 11/96/82 74/97/82 75/88/82 16/87/82
f 16/87/83 75/88/83 76/79/83 21/78/83
f 21/78/84 76/79/84 77/70/84 26/69/84
f 26/69/85 77/70/85 78/61/85 31/60/85
f 31/60/86 78/61/86 79/52/86 36/51/86
f 36/51/87 79/52/87 80/43/87 41/42/87
f 41/42/88 80/43/88 81/34/88 46/33/88
f 46/33/89 81/34/89 82/20/89 51/17/89
f 51/17/90 82/20/90 73/23/90 4/18/90
f 5/22/91 83/27/91 84/99/91 10/98/91
f 10/98/92 84/99/92 85/90/92 15/89/92
f 15/89/93 85/90/93 86/81/93 20/80/93
f 20/80/94 86/81/94 87/72/94 25/71/94
f 25/71/95 87/72/95 88/63/95 30/62/95
f 30/62/96 88/63/96 89/54/96 35/53/96
f 35/53/97 89/54/97 90/45/97 40/44/97
f 40/44/98 90/45/98 91/36/98 45/35/98
f 45/35/99 91/36/99 92/24/99 50/21/99
f 50/21/100 92/24/100 83/27/100 5/22/100
f 6/26/101 93/29/101 94/101/101 9/100/101
f 9/100/102 94/101/102 95/92/102 14/91/102
f 14/91/103 95/92/103 96/83/103 19/82/103
f 19/82/104 96/83/104 97/74/104 24/73/104
f 24/73/105 97/74/105 98/65/105 29/64/105
f 29/64/106 98/65/106 99/56/106 34/55/106
f 34/55/107 99/56/107 100/47/107 39/46/107
f 39/46/108 100/47/108 101/38/108 44/37/108
f 44/37/109 101/38/109 102/28/109 49/25/109
f 49/25/110 102/28/110 93/29/110 6/26/110
f 1/112/111 106/102/111 107/103/111
f 1/112/112 107/103/112 108/104/112
f 1/112/113 108/104/113 109/105/113
f 1/112/114 109/105/114 110/106/114
f 1/112/115 110/106/115 111/107/115
f 1/112/116 111/107/116 112/108/116
f 1/112/117 112/108/117 113/109/117
f 1/112/118 113/109/118 114/110/118
f 1/112/119 114/110/119 115/111/119
f 1/112/120 115/111/120 106/102/120
f 136/113/121 117/114/121 119/115/121 137/116/121
f 137/116/122 119/115/122 121/117/122 138/118/122
f 138/118/123 121/117/123 123/119/123 139/120/123
f 139/120/124 123/119/124 125/121/124 140/122/124
f 140/122/125 125/121/125 127/123/125 141/124/125
f 141/124/126 127/123/126 129/125/126 142/126/126
f 142/126/127 129/125/127 131/127/127 143/128/127
f 143/128/128 131/127/128 133/129/128 144/130/128
f 119/115/129 117/114/129 135/131/129 133/129/129 131/127/129 129/125/129 127/123/129 125/121/129 123/119/129 121/117/129
f 144/130/130 133/129/130 135/131/130 145/132/130
f 145/132/131 135/131/131 117/114/131 136/113/131
f 116/133/132 118/134/132 120/135/132 122/136/132 124/137/132 126/138/132 128/139/132 130/140/132 132/141/132 134/142/132
f 134/142/133 145/132/133 136/113/133 116/133/133
f 132/141/134 144/130/134 145/132/134 134/142/134
f 130/140/135 143/128/135 144/130/135 132/141/135
f 128/139/136 142/126/136 143/128/136 130/140/136
f 126/138/137 141/124/137 142/126/137 128/139/137
f 124/137/138 140/122/138 141/124/138 126/138/138
f 122/136/139 139/120/139 140/122/139 124/137/139
f 120/135/140 138/118/140 139/120/140 122/136/140
f 118/134/141 137/116/141 138/118/141 120/135/141
f 116/133/142 136/113/142 137/116/142 118/134/142
l 67 105
