# Blender v2.80 (sub 75) OBJ File: ''
# www.blender.org
mtllib axe.mtl
o Cylinder.002
v -0.105417 -1.182963 -0.060863
v 0.000000 5.268967 -0.178209
v -0.105417 -1.182963 0.060863
v 0.154334 5.268967 -0.089105
v -0.000000 -1.182963 0.121725
v 0.154334 5.268967 0.089105
v 0.105417 -1.182963 0.060863
v -0.000000 5.268967 0.178209
v 0.105417 -1.182963 -0.060863
v -0.154334 5.268967 0.089105
v -0.000000 -1.182963 -0.121725
v -0.154334 5.268967 -0.089105
v 0.066779 5.534911 -0.038554
v 0.000001 5.534911 -0.077108
v 0.066779 5.534911 0.038554
v 0.000001 5.534911 0.077108
v -0.066776 5.534911 0.038554
v -0.066776 5.534911 -0.038554
v 0.000000 -0.578573 -0.178209
v 0.154334 -0.578573 -0.089105
v 0.154334 -0.578573 0.089105
v -0.000000 -0.578573 0.178209
v -0.154334 -0.578573 0.089105
v -0.154334 -0.578573 -0.089105
v 0.000000 -1.000000 -0.264562
v 0.229117 -1.000000 -0.132281
v 0.229117 -0.578573 -0.132281
v 0.229117 -1.000000 0.132281
v 0.229117 -0.578573 0.132281
v -0.000000 -1.000000 0.264562
v -0.000000 -0.578573 0.264562
v -0.229117 -1.000000 0.132281
v -0.229117 -0.578573 0.132281
v -0.229117 -1.000000 -0.132281
v -0.229117 -0.578573 -0.132281
v 0.000000 -0.578573 -0.264562
v 0.000000 1.052096 -0.178209
v 0.154334 1.052096 -0.089105
v 0.154334 1.052096 0.089105
v -0.000000 1.052096 0.178209
v -0.154334 1.052096 0.089105
v -0.154334 1.052096 -0.089105
v 0.000000 1.406418 -0.178209
v 0.154334 1.406418 -0.089105
v 0.154334 1.406418 0.089105
v -0.000000 1.406418 0.178209
v -0.154334 1.406418 0.089105
v -0.154334 1.406418 -0.089105
v 0.217911 1.406418 -0.125811
v 0.217911 1.052096 -0.125811
v 0.217911 1.406418 0.125811
v 0.217911 1.052096 0.125811
v -0.000000 1.406418 0.251622
v -0.000000 1.052096 0.251622
v -0.217911 1.406418 0.125811
v -0.217911 1.052096 0.125811
v -0.217911 1.406418 -0.125811
v -0.217911 1.052096 -0.125811
v 0.000000 1.052096 -0.251622
v 0.000000 1.406418 -0.251622
v 0.000000 5.069013 -0.178209
v 0.154334 5.069013 -0.089105
v 0.154334 5.069013 0.089105
v -0.000000 5.069013 0.178209
v -0.154334 5.069013 0.089105
v -0.154334 5.069013 -0.089105
v 0.154334 4.181616 -0.089105
v 0.154334 4.181616 0.089105
v -0.000000 4.181616 0.178209
v -0.154334 4.181616 0.089105
v -0.154334 4.181616 -0.089105
v 0.000000 4.181617 -0.178209
v 0.359881 5.069013 -0.089105
v 0.359881 5.069013 0.089105
v 0.359881 4.181616 -0.089105
v 0.359881 4.181616 0.089105
v 0.664347 5.792590 -0.089105
v 0.664347 5.792590 0.089105
v 0.664347 3.458040 -0.089105
v 0.664347 3.458040 0.089105
v 1.139675 5.911628 -0.089105
v 1.139675 5.911628 0.089105
v 1.139675 3.339002 -0.089105
v 1.139675 3.339002 0.089105
v 1.229602 5.925689 -0.089105
v 1.229602 5.925689 0.089105
v 1.229602 3.324941 -0.089105
v 1.229602 3.324941 0.089105
v -0.413188 5.069013 0.089105
v -0.413188 5.069013 -0.089105
v -0.413188 4.181616 0.089105
v -0.413188 4.181616 -0.089105
v -0.695654 5.512576 0.089105
v -0.695654 5.512576 -0.089105
v -0.695654 3.738054 0.089105
v -0.695654 3.738054 -0.089105
v -1.175194 5.720231 0.089105
v -1.175194 5.720231 -0.089105
v -0.966112 3.530399 0.089105
v -0.966112 3.530399 -0.089105
v 0.000000 4.840142 -0.178209
v 0.154334 4.840142 -0.089105
v 0.154334 4.840142 0.089105
v -0.000000 4.840142 0.178209
v -0.154334 4.840142 0.089105
v -0.154334 4.840142 -0.089105
v 0.359881 4.840142 -0.089105
v 0.359881 4.840142 0.089105
v 0.664347 5.190481 -0.089105
v 0.664347 5.190481 0.089105
v 1.139675 5.248116 -0.089105
v 1.139675 5.248116 0.089105
v 1.229602 5.254924 -0.089105
v 1.229602 5.254924 0.089105
v -0.413188 4.840142 0.089105
v -0.413188 4.840142 -0.089105
v -0.695654 5.054905 0.089105
v -0.695654 5.054905 -0.089105
v -0.966112 5.155447 0.089105
v -0.966112 5.155447 -0.089105
vt 0.598872 0.669933
vt 0.774198 0.669933
vt 0.774198 0.845259
vt 0.598872 0.845259
vt 0.598872 0.669933
vt 0.774198 0.669933
vt 0.774198 0.845259
vt 0.598872 0.845259
vt 0.598872 0.669933
vt 0.774198 0.669933
vt 0.774198 0.845259
vt 0.598872 0.845259
vt 0.598872 0.669933
vt 0.774198 0.669933
vt 0.774198 0.845259
vt 0.598872 0.845259
vt 0.598872 0.669933
vt 0.774198 0.669933
vt 0.774198 0.845259
vt 0.598872 0.845259
vt 0.598872 0.669933
vt 0.774198 0.669933
vt 0.774198 0.845259
vt 0.598872 0.845259
vt 0.598872 0.669933
vt 0.774198 0.845259
vt 0.598872 0.845259
vt 0.673211 0.823052
vt 0.749129 0.779221
vt 0.749129 0.691558
vt 0.673211 0.647727
vt 0.597293 0.691558
vt 0.597293 0.779221
vt 0.686535 0.845259
vt 0.762453 0.801428
vt 0.762453 0.713765
vt 0.686535 0.669933
vt 0.610617 0.713765
vt 0.610617 0.801428
vt 0.598872 0.669933
vt 0.774198 0.845259
vt 0.598872 0.845259
vt 0.598872 0.669933
vt 0.774198 0.845259
vt 0.598872 0.845259
vt 0.598872 0.669933
vt 0.774198 0.845259
vt 0.598872 0.845259
vt 0.598872 0.669933
vt 0.774198 0.845259
vt 0.598872 0.845259
vt 0.598872 0.669933
vt 0.774198 0.845259
vt 0.598872 0.845259
vt 0.585548 0.647727
vt 0.760874 0.647727
vt 0.760874 0.823052
vt 0.585548 0.823052
vt 0.585548 0.647727
vt 0.760874 0.647727
vt 0.760874 0.823052
vt 0.585548 0.823052
vt 0.585548 0.647727
vt 0.760874 0.647727
vt 0.760874 0.823052
vt 0.585548 0.823052
vt 0.585548 0.647727
vt 0.760874 0.647727
vt 0.760874 0.823052
vt 0.585548 0.823052
vt 0.585548 0.647727
vt 0.760874 0.647727
vt 0.760874 0.823052
vt 0.585548 0.823052
vt 0.585548 0.647727
vt 0.760874 0.647727
vt 0.760874 0.823052
vt 0.585548 0.823052
vt 0.585548 0.647727
vt 0.760874 0.647727
vt 0.760874 0.823052
vt 0.585548 0.823052
vt 0.585548 0.647727
vt 0.760874 0.647727
vt 0.585548 0.823052
vt 0.760874 0.647727
vt 0.585548 0.823052
vt 0.585548 0.647727
vt 0.760874 0.647727
vt 0.585548 0.823052
vt 0.585548 0.647727
vt 0.760874 0.647727
vt 0.585548 0.823052
vt 0.585548 0.647727
vt 0.760874 0.647727
vt 0.585548 0.823052
vt 0.585548 0.647727
vt 0.760874 0.647727
vt 0.585548 0.823052
vt 0.760874 0.647727
vt 0.760874 0.823052
vt 0.585548 0.823052
vt 0.760874 0.647727
vt 0.760874 0.823052
vt 0.585548 0.823052
vt 0.760874 0.647727
vt 0.760874 0.823052
vt 0.585548 0.823052
vt 0.760874 0.647727
vt 0.760874 0.823052
vt 0.585548 0.823052
vt 0.760874 0.647727
vt 0.760874 0.823052
vt 0.585548 0.823052
vt 0.145858 0.629961
vt 0.321184 0.629961
vt 0.321184 0.805287
vt 0.145858 0.805287
vt 0.145858 0.629961
vt 0.321184 0.629961
vt 0.321184 0.805287
vt 0.145858 0.805287
vt 0.145858 0.629961
vt 0.321184 0.629961
vt 0.321184 0.805287
vt 0.145858 0.805287
vt 0.145858 0.629961
vt 0.321184 0.629961
vt 0.321184 0.805287
vt 0.145858 0.805287
vt 0.145858 0.629961
vt 0.321184 0.629961
vt 0.321184 0.805287
vt 0.145858 0.805287
vt 0.145858 0.629961
vt 0.321184 0.629961
vt 0.321184 0.805287
vt 0.145858 0.805287
vt 0.581107 0.647727
vt 0.756433 0.647727
vt 0.756433 0.823052
vt 0.581107 0.823052
vt 0.581107 0.647727
vt 0.756433 0.647727
vt 0.756433 0.823052
vt 0.581107 0.823052
vt 0.581107 0.647727
vt 0.756433 0.647727
vt 0.756433 0.823052
vt 0.581107 0.823052
vt 0.581107 0.647727
vt 0.756433 0.647727
vt 0.756433 0.823052
vt 0.581107 0.823052
vt 0.581107 0.647727
vt 0.756433 0.647727
vt 0.756433 0.823052
vt 0.581107 0.823052
vt 0.581107 0.647727
vt 0.756433 0.647727
vt 0.756433 0.823052
vt 0.581107 0.823052
vt 0.581107 0.647727
vt 0.756433 0.647727
vt 0.756433 0.823052
vt 0.581107 0.647727
vt 0.756433 0.647727
vt 0.581107 0.823052
vt 0.581107 0.647727
vt 0.756433 0.647727
vt 0.581107 0.823052
vt 0.581107 0.647727
vt 0.756433 0.647727
vt 0.756433 0.823052
vt 0.581107 0.647727
vt 0.756433 0.647727
vt 0.581107 0.823052
vt 0.581107 0.647727
vt 0.756433 0.647727
vt 0.581107 0.823052
vt 0.581107 0.647727
vt 0.756433 0.647727
vt 0.756433 0.823052
vt 0.581107 0.647727
vt 0.756433 0.647727
vt 0.756433 0.823052
vt 0.581107 0.647727
vt 0.756433 0.647727
vt 0.581107 0.823052
vt 0.581107 0.647727
vt 0.756433 0.647727
vt 0.756433 0.823052
vt 0.581107 0.647727
vt 0.756433 0.647727
vt 0.581107 0.823052
vt 0.581107 0.647727
vt 0.756433 0.647727
vt 0.756433 0.823052
vt 0.145858 0.629961
vt 0.321184 0.629961
vt 0.321184 0.805287
vt 0.145858 0.805287
vt 0.589990 0.194713
vt 0.765315 0.194713
vt 0.765315 0.370039
vt 0.589990 0.370039
vt 0.145858 0.629961
vt 0.321184 0.629961
vt 0.321184 0.805287
vt 0.145858 0.805287
vt 0.145858 0.629961
vt 0.321184 0.629961
vt 0.321184 0.805287
vt 0.145858 0.805287
vt 0.589990 0.194713
vt 0.765315 0.194713
vt 0.765315 0.370039
vt 0.589990 0.370039
vt 0.145858 0.629961
vt 0.321184 0.629961
vt 0.321184 0.805287
vt 0.145858 0.805287
vt 0.145858 0.629961
vt 0.321184 0.629961
vt 0.321184 0.805287
vt 0.145858 0.805287
vt 0.145858 0.629961
vt 0.321184 0.629961
vt 0.321184 0.805287
vt 0.145858 0.805287
vt 0.145858 0.629961
vt 0.321184 0.629961
vt 0.321184 0.805287
vt 0.145858 0.805287
vt 0.145858 0.629961
vt 0.321184 0.629961
vt 0.321184 0.805287
vt 0.145858 0.805287
vt 0.145858 0.629961
vt 0.321184 0.629961
vt 0.321184 0.805287
vt 0.145858 0.805287
vt 0.145858 0.629961
vt 0.321184 0.629961
vt 0.321184 0.805287
vt 0.145858 0.805287
vt 0.558900 0.185830
vt 0.734226 0.185830
vt 0.734226 0.361156
vt 0.558900 0.361156
vt 0.589990 0.194713
vt 0.765315 0.194713
vt 0.765315 0.370039
vt 0.589990 0.370039
vt 0.589990 0.194713
vt 0.765315 0.194713
vt 0.765315 0.370039
vt 0.589990 0.370039
vt 0.589990 0.194713
vt 0.765315 0.194713
vt 0.765315 0.370039
vt 0.589990 0.370039
vt 0.589990 0.194713
vt 0.765315 0.194713
vt 0.765315 0.370039
vt 0.589990 0.370039
vt 0.589990 0.194713
vt 0.765315 0.194713
vt 0.765315 0.370039
vt 0.589990 0.370039
vt 0.589990 0.194713
vt 0.765315 0.194713
vt 0.765315 0.370039
vt 0.589990 0.370039
vt 0.589990 0.194713
vt 0.765315 0.194713
vt 0.765315 0.370039
vt 0.589990 0.370039
vt 0.589990 0.194713
vt 0.765315 0.194713
vt 0.765315 0.370039
vt 0.589990 0.370039
vt 0.589990 0.194713
vt 0.765315 0.194713
vt 0.765315 0.370039
vt 0.589990 0.370039
vt 0.589990 0.194713
vt 0.765315 0.194713
vt 0.765315 0.370039
vt 0.589990 0.370039
vt 0.589990 0.194713
vt 0.765315 0.194713
vt 0.765315 0.370039
vt 0.589990 0.370039
vt 0.589990 0.194713
vt 0.765315 0.194713
vt 0.765315 0.370039
vt 0.589990 0.194713
vt 0.765315 0.194713
vt 0.589990 0.370039
vt 0.589990 0.194713
vt 0.765315 0.194713
vt 0.765315 0.370039
vt 0.589990 0.370039
vt 0.589990 0.194713
vt 0.765315 0.194713
vt 0.765315 0.370039
vt 0.589990 0.370039
vt 0.589990 0.194713
vt 0.765315 0.194713
vt 0.765315 0.370039
vt 0.589990 0.370039
vt 0.589990 0.194713
vt 0.765315 0.194713
vt 0.765315 0.370039
vt 0.589990 0.370039
vt 0.589990 0.194713
vt 0.765315 0.194713
vt 0.765315 0.370039
vt 0.589990 0.370039
vt 0.589990 0.194713
vt 0.765315 0.194713
vt 0.765315 0.370039
vt 0.589990 0.370039
vt 0.589990 0.194713
vt 0.765315 0.194713
vt 0.765315 0.370039
vt 0.589990 0.370039
vt 0.589990 0.194713
vt 0.765315 0.194713
vt 0.765315 0.370039
vt 0.589990 0.370039
vt 0.603314 0.212478
vt 0.778639 0.212478
vt 0.778639 0.387804
vt 0.603314 0.387804
vt 0.589990 0.194713
vt 0.765315 0.194713
vt 0.765315 0.370039
vt 0.589990 0.370039
vt 0.589990 0.194713
vt 0.765315 0.194713
vt 0.765315 0.370039
vt 0.589990 0.194713
vt 0.765315 0.194713
vt 0.589990 0.370039
vt 0.589990 0.194713
vt 0.765315 0.194713
vt 0.765315 0.370039
vt 0.589990 0.370039
vt 0.589990 0.194713
vt 0.765315 0.194713
vt 0.765315 0.370039
vt 0.589990 0.370039
vt 0.589990 0.194713
vt 0.765315 0.194713
vt 0.765315 0.370039
vt 0.589990 0.370039
vt 0.589990 0.194713
vt 0.765315 0.194713
vt 0.765315 0.370039
vt 0.589990 0.194713
vt 0.765315 0.194713
vt 0.765315 0.370039
vt 0.589990 0.370039
vt 0.589990 0.194713
vt 0.765315 0.194713
vt 0.589990 0.370039
vt 0.589990 0.194713
vt 0.765315 0.194713
vt 0.765315 0.370039
vt 0.589990 0.370039
vt 0.589990 0.194713
vt 0.765315 0.194713
vt 0.765315 0.370039
vt 0.589990 0.370039
vt 0.589990 0.194713
vt 0.765315 0.194713
vt 0.765315 0.370039
vt 0.589990 0.370039
vt 0.589990 0.194713
vt 0.765315 0.194713
vt 0.765315 0.370039
vt 0.589990 0.370039
vt 0.589990 0.194713
vt 0.765315 0.194713
vt 0.765315 0.370039
vt 0.589990 0.194713
vt 0.765315 0.194713
vt 0.765315 0.370039
vt 0.589990 0.370039
vt 0.589990 0.194713
vt 0.765315 0.194713
vt 0.765315 0.370039
vt 0.589990 0.370039
vt 0.589990 0.194713
vt 0.765315 0.194713
vt 0.589990 0.370039
vt 0.589990 0.194713
vt 0.765315 0.194713
vt 0.765315 0.370039
vt 0.589990 0.370039
vt 0.589990 0.194713
vt 0.765315 0.194713
vt 0.765315 0.370039
vt 0.589990 0.370039
vt 0.589990 0.194713
vt 0.765315 0.194713
vt 0.765315 0.370039
vt 0.589990 0.370039
vt 0.145858 0.629961
vt 0.321184 0.629961
vt 0.321184 0.805287
vt 0.145858 0.805287
vt 0.589990 0.194713
vt 0.765315 0.194713
vt 0.765315 0.370039
vt 0.589990 0.370039
vt 0.145858 0.629961
vt 0.321184 0.629961
vt 0.321184 0.805287
vt 0.145858 0.805287
vt 0.145858 0.629961
vt 0.321184 0.629961
vt 0.321184 0.805287
vt 0.145858 0.805287
vt 0.145858 0.629961
vt 0.321184 0.629961
vt 0.321184 0.805287
vt 0.145858 0.805287
vn 0.5000 0.0000 -0.8660
vn 1.0000 0.0000 0.0000
vn 0.5000 0.0000 0.8660
vn -0.5000 0.0000 0.8660
vn -0.4749 0.3127 -0.8226
vn -1.0000 0.0000 0.0000
vn -0.5000 0.0000 -0.8660
vn 0.0000 -1.0000 0.0000
vn 0.0000 1.0000 0.0000
vn -0.4749 0.3127 0.8226
vn 0.9498 0.3127 -0.0000
vn -0.9498 0.3127 0.0000
vn 0.4749 0.3127 -0.8226
vn 0.4749 0.3127 0.8226
vn -0.8284 -0.5601 0.0000
vn -0.4142 -0.5601 0.7174
vn 0.4142 -0.5601 0.7174
vn 0.8284 -0.5601 -0.0000
vn 0.4142 -0.5601 -0.7174
vn -0.4142 -0.5601 -0.7174
vn 0.0000 0.0000 1.0000
vn -0.9217 0.3878 0.0000
vn 0.0000 0.0000 -1.0000
vn -0.2429 -0.9700 0.0000
vn -0.9217 -0.3878 0.0000
vn -0.2429 0.9700 0.0000
vn -0.1545 0.9880 0.0000
vn -0.1545 -0.9880 0.0000
vn 0.8435 0.5371 0.0000
vn 0.8435 -0.5371 0.0000
vn -0.9378 -0.3472 0.0000
vn 0.3974 0.9177 0.0000
vn 0.6090 -0.7932 0.0000
usemtl Material
s off
f 61/1/1 2/2/1 4/3/1 62/4/1
f 62/5/2 4/6/2 6/7/2 63/8/2
f 63/9/3 6/10/3 8/11/3 64/12/3
f 64/13/4 8/14/4 10/15/4 65/16/4
f 2/17/5 12/18/5 18/19/5 14/20/5
f 65/21/6 10/22/6 12/23/6 66/24/6
f 66/25/7 12/18/7 2/26/7 61/27/7
f 11/28/8 9/29/8 7/30/8 5/31/8 3/32/8 1/33/8
f 13/34/9 14/35/9 18/36/9 17/37/9 16/38/9 15/39/9
f 10/40/10 8/14/10 16/41/10 17/42/10
f 6/43/11 4/6/11 13/44/11 15/45/11
f 12/46/12 10/22/12 17/47/12 18/48/12
f 4/49/13 2/2/13 14/50/13 13/51/13
f 8/52/14 6/10/14 15/53/14 16/54/14
f 19/55/9 20/56/9 27/57/9 36/58/9
f 24/59/9 19/60/9 36/61/9 35/62/9
f 22/63/9 23/64/9 33/65/9 31/66/9
f 20/67/9 21/68/9 29/69/9 27/70/9
f 23/71/9 24/72/9 35/73/9 33/74/9
f 21/75/9 22/76/9 31/77/9 29/78/9
f 32/79/15 34/80/15 1/81/15 3/82/15
f 34/83/7 35/84/7 36/61/7 25/85/7
f 32/79/6 33/86/6 35/73/6 34/87/6
f 30/88/4 31/89/4 33/65/4 32/90/4
f 28/91/3 29/92/3 31/77/3 30/93/3
f 26/94/2 27/95/2 29/69/2 28/96/2
f 25/97/1 36/98/1 27/57/1 26/99/1
f 30/88/16 32/100/16 3/101/16 5/102/16
f 28/91/17 30/103/17 5/104/17 7/105/17
f 26/94/18 28/106/18 7/107/18 9/108/18
f 25/97/19 26/109/19 9/110/19 11/111/19
f 34/83/20 25/112/20 11/113/20 1/114/20
f 24/115/7 42/116/7 37/117/7 19/118/7
f 23/119/6 41/120/6 42/121/6 24/122/6
f 22/123/4 40/124/4 41/125/4 23/126/4
f 21/127/3 39/128/3 40/129/3 22/130/3
f 20/131/2 38/132/2 39/133/2 21/134/2
f 19/135/1 37/136/1 38/137/1 20/138/1
f 46/139/9 47/140/9 55/141/9 53/142/9
f 37/143/8 42/144/8 58/145/8 59/146/8
f 43/147/9 44/148/9 49/149/9 60/150/9
f 40/151/8 39/152/8 52/153/8 54/154/8
f 47/155/9 48/156/9 57/157/9 55/158/9
f 44/159/9 45/160/9 51/161/9 49/162/9
f 58/163/7 57/164/7 60/165/7 59/146/7
f 56/166/6 55/167/6 57/157/6 58/168/6
f 54/169/4 53/170/4 55/141/4 56/171/4
f 52/172/3 51/173/3 53/174/3 54/154/3
f 50/175/2 49/176/2 51/161/2 52/177/2
f 59/178/1 60/179/1 49/149/1 50/180/1
f 39/181/8 38/182/8 50/183/8 52/177/8
f 42/184/8 41/185/8 56/186/8 58/168/8
f 45/187/9 46/188/9 53/174/9 51/189/9
f 38/190/8 37/191/8 59/192/8 50/180/8
f 48/193/9 43/194/9 60/165/9 57/195/9
f 41/196/8 40/197/8 54/198/8 56/171/8
f 106/199/7 66/200/7 61/201/7 101/202/7
f 71/203/8 70/204/8 91/205/8 92/206/8
f 104/207/4 64/208/4 65/209/4 105/210/4
f 103/211/3 63/212/3 64/213/3 104/214/3
f 103/215/21 68/216/21 76/217/21 108/218/21
f 101/219/1 61/220/1 62/221/1 102/222/1
f 43/223/1 72/224/1 67/225/1 44/226/1
f 44/227/2 67/228/2 68/229/2 45/230/2
f 45/231/3 68/232/3 69/233/3 46/234/3
f 46/235/4 69/236/4 70/237/4 47/238/4
f 47/239/6 70/240/6 71/241/6 48/242/6
f 48/243/7 71/244/7 72/245/7 43/246/7
f 73/247/22 74/248/22 78/249/22 77/250/22
f 102/251/23 62/252/23 73/253/23 107/254/23
f 62/255/9 63/256/9 74/257/9 73/258/9
f 68/259/8 67/260/8 75/261/8 76/262/8
f 80/263/24 79/264/24 83/265/24 84/266/24
f 76/267/25 75/268/25 79/269/25 80/270/25
f 107/271/23 73/272/23 77/273/23 109/274/23
f 108/275/21 76/276/21 80/277/21 110/278/21
f 112/279/21 84/280/21 88/281/21 114/282/21
f 109/283/23 77/284/23 81/285/23 111/286/23
f 110/287/21 80/288/21 84/289/21 112/290/21
f 77/291/26 78/292/26 82/293/26 81/294/26
f 113/295/2 85/296/2 86/297/2 114/282/2
f 81/298/27 82/299/27 86/297/27 85/300/27
f 84/301/28 83/302/28 87/303/28 88/304/28
f 111/305/23 81/306/23 85/307/23 113/308/23
f 115/309/21 89/310/21 93/311/21 117/312/21
f 65/313/9 66/314/9 90/315/9 89/316/9
f 106/317/23 71/318/23 92/319/23 116/320/23
f 105/321/21 65/322/21 89/323/21 115/324/21
f 118/325/23 96/326/23 100/327/23 120/328/23
f 116/329/23 92/330/23 96/331/23 118/332/23
f 89/333/29 90/334/29 94/335/29 93/336/29
f 92/337/30 91/338/30 95/339/30 96/340/30
f 119/341/31 97/342/31 98/343/31 120/328/31
f 93/344/32 94/345/32 98/343/32 97/346/32
f 96/347/33 95/348/33 99/349/33 100/350/33
f 117/351/21 93/352/21 97/353/21 119/354/21
f 95/355/21 117/356/21 119/357/21 99/358/21
f 99/359/6 119/360/6 120/361/6 100/350/6
f 90/362/23 116/363/23 118/364/23 94/365/23
f 94/366/23 118/367/23 120/361/23 98/368/23
f 70/369/21 105/370/21 115/371/21 91/372/21
f 66/373/23 106/374/23 116/375/23 90/376/23
f 91/377/21 115/378/21 117/379/21 95/380/21
f 83/381/23 111/382/23 113/383/23 87/384/23
f 87/385/2 113/386/2 114/387/2 88/304/2
f 78/388/21 110/389/21 112/390/21 82/391/21
f 79/392/23 109/393/23 111/394/23 83/395/23
f 82/396/21 112/397/21 114/387/21 86/398/21
f 74/399/21 108/400/21 110/401/21 78/402/21
f 75/403/23 107/404/23 109/405/23 79/406/23
f 67/407/23 102/408/23 107/409/23 75/410/23
f 72/411/1 101/412/1 102/413/1 67/414/1
f 63/415/21 103/416/21 108/417/21 74/418/21
f 68/419/3 103/420/3 104/421/3 69/422/3
f 69/423/4 104/424/4 105/425/4 70/426/4
f 71/427/7 106/428/7 101/429/7 72/430/7
