# Blender v2.80 (sub 75) OBJ File: ''
# www.blender.org
mtllib mace.mtl
o Cylinder
v -0.239476 0.771966 -0.138261
v 0.000000 0.771966 -0.190992
v -0.239476 0.771966 0.138261
v 0.165404 0.771966 -0.095496
v -0.000000 0.771966 0.276523
v 0.165404 0.771966 0.095496
v 0.239476 0.771966 0.138261
v -0.000000 0.771966 0.190992
v 0.000000 0.771966 -0.276523
v -0.165404 0.771966 0.095496
v 0.239476 0.771966 -0.138261
v -0.165404 0.771966 -0.095496
v 0.000000 -0.612445 -0.190992
v 0.165404 -0.612445 -0.095496
v 0.165404 -0.612445 0.095496
v -0.000000 -0.612445 0.190992
v -0.165404 -0.612445 0.095496
v -0.165404 -0.612445 -0.095496
v 0.000000 -1.000000 -0.272922
v 0.236358 -1.000000 -0.136461
v 0.236358 -0.612445 -0.136461
v 0.236358 -1.000000 0.136461
v 0.236358 -0.612445 0.136461
v -0.000000 -1.000000 0.272922
v -0.000000 -0.612445 0.272922
v -0.236358 -1.000000 0.136461
v -0.236358 -0.612445 0.136461
v -0.236358 -1.000000 -0.136461
v -0.236358 -0.612445 -0.136461
v 0.000000 -0.612445 -0.272922
v 0.000000 1.245164 -0.276523
v -0.239476 1.245164 -0.138261
v -0.239476 1.245164 0.138261
v -0.000000 1.245164 0.276523
v 0.239476 1.245164 0.138261
v 0.239476 1.245164 -0.138261
v 0.000000 1.245164 -0.184792
v -0.160034 1.245164 -0.092396
v -0.160034 1.245164 0.092396
v -0.000000 1.245164 0.184792
v 0.160034 1.245164 0.092396
v 0.160034 1.245164 -0.092396
v -0.000001 3.745540 -0.184792
v -0.160035 3.745540 -0.092396
v -0.160035 3.745540 0.092396
v -0.000001 3.745540 0.184792
v 0.160034 3.745540 0.092396
v 0.160034 3.745540 -0.092396
v 0.000000 3.259816 0.000000
v 0.723600 3.812601 0.525720
v -0.276385 3.812601 0.850640
v -0.894425 3.812601 0.000000
v -0.276385 3.812601 -0.850640
v 0.723600 3.812601 -0.525720
v 0.276385 4.707031 0.850640
v -0.723600 4.707031 0.525720
v -0.723600 4.707031 -0.525720
v 0.276385 4.707031 -0.850640
v 0.894425 4.707031 0.000000
v 0.000000 5.259816 0.000000
vt 0.155534 0.728463
vt 0.240447 0.728463
vt 0.240447 0.813377
vt 0.155534 0.813377
vt 0.155534 0.728463
vt 0.240447 0.728463
vt 0.240447 0.813377
vt 0.155534 0.813377
vt 0.155534 0.728463
vt 0.240447 0.728463
vt 0.240447 0.813377
vt 0.155534 0.813377
vt 0.155534 0.728463
vt 0.240447 0.728463
vt 0.240447 0.813377
vt 0.155534 0.813377
vt 0.204389 0.275450
vt 0.289302 0.275450
vt 0.289302 0.360363
vt 0.204389 0.360363
vt 0.155534 0.728463
vt 0.240447 0.728463
vt 0.240447 0.813377
vt 0.155534 0.813377
vt 0.155534 0.728463
vt 0.240447 0.728463
vt 0.240447 0.813377
vt 0.155534 0.813377
vt 0.204389 0.275450
vt 0.289302 0.275450
vt 0.289302 0.360363
vt 0.204389 0.360363
vt 0.204389 0.275450
vt 0.289302 0.275450
vt 0.289302 0.360363
vt 0.204389 0.360363
vt 0.204389 0.275450
vt 0.289302 0.275450
vt 0.289302 0.360363
vt 0.204389 0.360363
vt 0.204389 0.275450
vt 0.289302 0.275450
vt 0.289302 0.360363
vt 0.204389 0.360363
vt 0.204389 0.275450
vt 0.289302 0.275450
vt 0.289302 0.360363
vt 0.204389 0.360363
vt 0.204389 0.275450
vt 0.289302 0.275450
vt 0.289302 0.360363
vt 0.204389 0.360363
vt 0.204389 0.275450
vt 0.289302 0.275450
vt 0.289302 0.360363
vt 0.204389 0.360363
vt 0.246845 0.360363
vt 0.283614 0.339135
vt 0.283614 0.296678
vt 0.246845 0.275450
vt 0.210077 0.296678
vt 0.210077 0.339134
vt 0.204389 0.275450
vt 0.289302 0.275450
vt 0.204389 0.360363
vt 0.204389 0.275450
vt 0.289302 0.275450
vt 0.204389 0.360363
vt 0.204389 0.275450
vt 0.289302 0.275450
vt 0.204389 0.360363
vt 0.204389 0.275450
vt 0.289302 0.275450
vt 0.204389 0.360363
vt 0.204389 0.275450
vt 0.289302 0.275450
vt 0.204389 0.360363
vt 0.204389 0.275450
vt 0.289302 0.275450
vt 0.204389 0.360363
vt 0.204389 0.275450
vt 0.289302 0.275450
vt 0.289302 0.360363
vt 0.204389 0.360363
vt 0.204389 0.275450
vt 0.289302 0.275450
vt 0.289302 0.360363
vt 0.204389 0.360363
vt 0.204389 0.275450
vt 0.289302 0.275450
vt 0.289302 0.360363
vt 0.204389 0.360363
vt 0.204389 0.275450
vt 0.289302 0.275450
vt 0.289302 0.360363
vt 0.204389 0.360363
vt 0.204389 0.275450
vt 0.289302 0.275450
vt 0.289302 0.360363
vt 0.204389 0.360363
vt 0.204389 0.275450
vt 0.289302 0.275450
vt 0.289302 0.360363
vt 0.204389 0.360363
vt 0.204389 0.275450
vt 0.289302 0.275450
vt 0.289302 0.360363
vt 0.204389 0.360363
vt 0.204389 0.275450
vt 0.289302 0.275450
vt 0.289302 0.360363
vt 0.204389 0.360363
vt 0.204389 0.275450
vt 0.289302 0.275450
vt 0.289302 0.360363
vt 0.204389 0.360363
vt 0.204389 0.275450
vt 0.289302 0.275450
vt 0.289302 0.360363
vt 0.204389 0.360363
vt 0.204389 0.275450
vt 0.289302 0.275450
vt 0.289302 0.360363
vt 0.204389 0.360363
vt 0.155534 0.728463
vt 0.240447 0.728463
vt 0.240447 0.813377
vt 0.155534 0.813377
vt 0.204389 0.275450
vt 0.289302 0.275450
vt 0.289302 0.360363
vt 0.204389 0.360363
vt 0.204389 0.275450
vt 0.289302 0.275450
vt 0.289302 0.360363
vt 0.204389 0.360363
vt 0.204389 0.275450
vt 0.289302 0.275450
vt 0.289302 0.360363
vt 0.204389 0.360363
vt 0.204389 0.275450
vt 0.289302 0.275450
vt 0.289302 0.360363
vt 0.204389 0.360363
vt 0.204389 0.275450
vt 0.289302 0.275450
vt 0.289302 0.360363
vt 0.204389 0.360363
vt 0.155534 0.728463
vt 0.240447 0.728463
vt 0.240447 0.813377
vt 0.155534 0.813377
vt 0.155534 0.728463
vt 0.240447 0.728463
vt 0.240447 0.813377
vt 0.155534 0.813377
vt 0.155534 0.728463
vt 0.240447 0.728463
vt 0.240447 0.813377
vt 0.155534 0.813377
vt 0.155534 0.728463
vt 0.240447 0.728463
vt 0.240447 0.813377
vt 0.155534 0.813377
vt 0.155534 0.728463
vt 0.240447 0.728463
vt 0.240447 0.813377
vt 0.155534 0.813377
vt 0.701816 0.617431
vt 0.786729 0.617431
vt 0.786729 0.702344
vt 0.701816 0.617431
vt 0.786729 0.617431
vt 0.786729 0.702344
vt 0.786729 0.617431
vt 0.786729 0.702344
vt 0.786729 0.617431
vt 0.786729 0.702344
vt 0.786729 0.617431
vt 0.786729 0.617431
vt 0.786729 0.702344
vt 0.701816 0.617431
vt 0.786729 0.702344
vt 0.701816 0.617431
vt 0.786729 0.702344
vt 0.701816 0.617431
vt 0.786729 0.702344
vt 0.701816 0.617431
vt 0.786729 0.702344
vt 0.786729 0.617431
vt 0.786729 0.617431
vt 0.786729 0.617431
vt 0.786729 0.617431
vt 0.786729 0.617431
vt 0.701816 0.617431
vt 0.786729 0.702344
vt 0.701816 0.617431
vt 0.701816 0.617431
vt 0.701816 0.617431
vt 0.701816 0.617431
vn 0.5000 0.0000 -0.8660
vn 1.0000 0.0000 0.0000
vn 0.5000 0.0000 0.8660
vn -0.5000 0.0000 0.8660
vn 0.0000 -1.0000 0.0000
vn -1.0000 0.0000 0.0000
vn -0.5000 0.0000 -0.8660
vn 0.0000 1.0000 0.0000
vn 0.1876 -0.7947 0.5774
vn 0.6071 -0.7947 0.0000
vn -0.4911 -0.7947 0.3568
vn -0.4911 -0.7947 -0.3568
vn 0.1876 -0.7947 -0.5774
vn 0.9822 -0.1876 0.0000
vn 0.3035 -0.1876 0.9342
vn -0.7946 -0.1876 0.5774
vn -0.7946 -0.1876 -0.5774
vn 0.3035 -0.1876 -0.9342
vn 0.7946 0.1876 0.5774
vn -0.3035 0.1876 0.9342
vn -0.9822 0.1876 0.0000
vn -0.3035 0.1876 -0.9342
vn 0.7946 0.1876 -0.5774
vn 0.4911 0.7947 0.3568
vn -0.1876 0.7947 0.5774
vn -0.6071 0.7947 0.0000
vn -0.1876 0.7947 -0.5774
vn 0.4911 0.7947 -0.3568
usemtl Material
s off
f 13/1/1 2/2/1 4/3/1 14/4/1
f 14/5/2 4/6/2 6/7/2 15/8/2
f 15/9/3 6/10/3 8/11/3 16/12/3
f 16/13/4 8/14/4 10/15/4 17/16/4
f 2/17/5 12/18/5 1/19/5 9/20/5
f 17/21/6 10/22/6 12/23/6 18/24/6
f 18/25/7 12/26/7 2/27/7 13/28/7
f 5/29/3 7/30/3 35/31/3 34/32/3
f 17/33/8 18/34/8 29/35/8 27/36/8
f 15/37/8 16/38/8 25/39/8 23/40/8
f 13/41/8 14/42/8 21/43/8 30/44/8
f 18/45/8 13/46/8 30/47/8 29/48/8
f 16/49/8 17/50/8 27/51/8 25/52/8
f 14/53/8 15/54/8 23/55/8 21/56/8
f 19/57/5 20/58/5 22/59/5 24/60/5 26/61/5 28/62/5
f 28/63/7 29/64/7 30/47/7 19/65/7
f 26/66/6 27/67/6 29/35/6 28/68/6
f 24/69/4 25/70/4 27/51/4 26/71/4
f 22/72/3 23/73/3 25/39/3 24/74/3
f 20/75/2 21/76/2 23/55/2 22/77/2
f 19/78/1 30/79/1 21/43/1 20/80/1
f 10/81/5 8/82/5 5/83/5 3/84/5
f 6/85/5 4/86/5 11/87/5 7/88/5
f 12/89/5 10/90/5 3/91/5 1/92/5
f 4/93/5 2/94/5 9/95/5 11/96/5
f 8/97/5 6/98/5 7/99/5 5/100/5
f 36/101/8 31/102/8 37/103/8 42/104/8
f 3/105/4 5/106/4 34/107/4 33/108/4
f 9/109/7 1/110/7 32/111/7 31/112/7
f 11/113/1 9/114/1 31/115/1 36/116/1
f 7/117/2 11/118/2 36/119/2 35/120/2
f 1/121/6 3/122/6 33/123/6 32/124/6
f 41/125/2 42/126/2 48/127/2 47/128/2
f 34/129/8 35/130/8 41/131/8 40/132/8
f 32/133/8 33/134/8 39/135/8 38/136/8
f 35/137/8 36/138/8 42/139/8 41/140/8
f 33/141/8 34/142/8 40/143/8 39/144/8
f 31/145/8 32/146/8 38/147/8 37/148/8
f 39/149/4 40/150/4 46/151/4 45/152/4
f 37/153/7 38/154/7 44/155/7 43/156/7
f 42/157/1 37/158/1 43/159/1 48/160/1
f 40/161/3 41/162/3 47/163/3 46/164/3
f 38/165/6 39/166/6 45/167/6 44/168/6
f 49/169/9 50/170/9 51/171/9
f 50/172/10 49/173/10 54/174/10
f 49/169/11 51/175/11 52/176/11
f 49/169/12 52/177/12 53/178/12
f 49/169/13 53/179/13 54/174/13
f 50/172/14 54/180/14 59/181/14
f 51/182/15 50/170/15 55/183/15
f 52/184/16 51/175/16 56/185/16
f 53/186/17 52/177/17 57/187/17
f 54/188/18 53/179/18 58/189/18
f 50/172/19 59/190/19 55/183/19
f 51/182/20 55/191/20 56/185/20
f 52/184/21 56/192/21 57/187/21
f 53/186/22 57/193/22 58/189/22
f 54/188/23 58/194/23 59/181/23
f 55/195/24 59/190/24 60/196/24
f 56/197/25 55/191/25 60/196/25
f 57/198/26 56/192/26 60/196/26
f 58/199/27 57/193/27 60/196/27
f 59/200/28 58/194/28 60/196/28
